<?xml version="1.0" encoding="utf-8"?>
<!-- Generator: Adobe Illustrator 25.0.0, SVG Export Plug-In . SVG Version: 6.00 Build 0)  -->
<svg version="1.1" id="Capa_1" xmlns="http://www.w3.org/2000/svg" xmlns:xlink="http://www.w3.org/1999/xlink" x="0px" y="0px"
	 viewBox="0 0 1024 1024" style="enable-background:new 0 0 1024 1024;" xml:space="preserve">
<style type="text/css">
	.st0{fill:url(#SVGID_1_);}
	.st1{fill:url(#SVGID_2_);}
	.st2{fill:url(#SVGID_3_);}
	.st3{fill:url(#SVGID_4_);}
	.st4{fill:url(#SVGID_5_);}
	.st5{fill:url(#SVGID_6_);}
	.st6{fill:url(#SVGID_7_);}
	.st7{fill:url(#SVGID_8_);}
	.st8{fill:#FFFFFF;}
	.st9{fill:url(#SVGID_9_);}
	.st10{fill:url(#SVGID_10_);}
	.st11{fill:url(#SVGID_11_);}
	.st12{fill:url(#SVGID_12_);}
	.st13{fill:url(#SVGID_13_);}
	.st14{fill:none;}
	.st15{fill:url(#SVGID_14_);}
	.st16{fill:url(#SVGID_15_);}
	.st17{fill:url(#SVGID_16_);}
	.st18{fill:url(#SVGID_17_);}
	.st19{fill:url(#SVGID_18_);}
	.st20{fill:url(#SVGID_19_);}
	.st21{fill:url(#SVGID_20_);}
	.st22{fill:url(#SVGID_21_);}
	.st23{fill:url(#SVGID_22_);}
	.st24{fill:url(#SVGID_23_);}
	.st25{display:none;}
	.st26{display:inline;}
	.st27{fill:#7D7D7D;}
	.st28{fill:#353535;}
	.st29{font-family:'HelveticaLTStd-Bold';}
	.st30{font-size:250px;}
</style>
<g>
	<linearGradient id="SVGID_1_" gradientUnits="userSpaceOnUse" x1="429.4359" y1="188.0359" x2="572.6725" y2="299.8303">
		<stop  offset="0" style="stop-color:#720004"/>
		<stop  offset="0.9946" style="stop-color:#FF0000"/>
	</linearGradient>
	<circle class="st0" cx="550.3" cy="282.3" r="135.3"/>
	<linearGradient id="SVGID_2_" gradientUnits="userSpaceOnUse" x1="467.2559" y1="167.7794" x2="479.6663" y2="328.4248">
		<stop  offset="0" style="stop-color:#530004"/>
		<stop  offset="0.4731" style="stop-color:#880003"/>
	</linearGradient>
	<path class="st1" d="M498,167.5c0,0-58.9,30.3-42.9,87.7c16.6,59.7,62.9,46.4,74.3,36.4c11.4-10-0.1,51.4-0.1,51.4h-63.2
		c0,0-8.8-7.9-15-10.1c-6.2-2.1-21.2-20.3-24.1-30.3c-2.9-10-11.3-36.3-9.6-46.7c1.7-10.3-4.9-19.8,3-33.9
		c7.8-14.1,12.3-27.8,18.8-34.2c6.5-6.4,30.3-26.1,30.3-26.1L498,167.5z"/>
	<g>
		<linearGradient id="SVGID_3_" gradientUnits="userSpaceOnUse" x1="660.3857" y1="527.6984" x2="370.8134" y2="252.5147">
			<stop  offset="1.075269e-02" style="stop-color:#F49C00"/>
			<stop  offset="0.9032" style="stop-color:#D50729"/>
		</linearGradient>
		<path class="st2" d="M493.9,168.4c-53.8,15.3-94.9,60.7-104.1,116.7c-1.3,7.7-3.2,40.2-3.1,41.9c2.4,75.5,57.6,137.7,130,150.8
			c2,0.4,10.1,1.9,11.6,2.2c35.9,7.2,62.9,38.9,62.9,76.9c0,34.1-21.7,63.1-52.1,73.9c-0.1,0,0,0.1,0,0.1
			c70.6-25.2,131.6-68.1,176.6-122.7c0.7-0.9,5.9-8.6,6.5-9.6c10.8-18.2,17-39.5,17-62.3c0-67.6-54.8-122.4-122.4-122.4
			c-17.9,0-34.8,3.8-50.1,10.7c-1.2,0.5-2.3,1.1-3.5,1.6c0,0-10.8,5.5-11.7,5.8c-8.8,3-18.1,4.6-27.9,4.6
			c-47.9,0-86.8-38.9-86.8-86.8c0-37.6,23.9-70.3,57.3-81.9L493.9,168.4z"/>
	</g>
	<g>
		<linearGradient id="SVGID_4_" gradientUnits="userSpaceOnUse" x1="492.7723" y1="169.3919" x2="491.4523" y2="168.1375">
			<stop  offset="0" style="stop-color:#F4D300"/>
			<stop  offset="0.9946" style="stop-color:#E10729"/>
		</linearGradient>
		<path class="st3" d="M494.1,168.1c-1.3,0.5-2.6,1-3.9,1.5c1.2-0.4,2.4-0.8,3.7-1.1L494.1,168.1z"/>
		<linearGradient id="SVGID_5_" gradientUnits="userSpaceOnUse" x1="660.3862" y1="527.6987" x2="370.8205" y2="252.5213">
			<stop  offset="0" style="stop-color:#F4D300"/>
			<stop  offset="0.9946" style="stop-color:#E10729"/>
		</linearGradient>
		<path class="st4" d="M715.6,508.3c0.7-0.9,5.9-8.6,6.5-9.6c10.8-18.2,17-39.5,17-62.3c0-67.6-54.8-122.4-122.4-122.4
			c-17.9,0-34.8,3.8-50.1,10.7c-1.2,0.5-2.3,1.1-3.5,1.6c0,0-10.8,5.5-11.7,5.8c-8.8,3-18.1,4.6-27.9,4.6
			c-47.9,0-86.8-38.9-86.8-86.8c0-36.1,22-67.7,53.4-80.4c-52,16.3-91.4,60.8-100.4,115.6c-0.3,1.7-0.6,4.5-0.9,7.9
			c17.8,44.3,47,90.1,129.9,103.2c37,5.8,104.8,20.7,113.7,101.3c8.1,72.9-27.1,94.4-70.4,120.2c-6.8,5.6-14.6,10-23.1,13
			c0,0,0,0-0.1,0c0,0,0,0.1,0,0.1C609.6,605.8,670.5,562.9,715.6,508.3z"/>
	</g>
	<g>
		<linearGradient id="SVGID_6_" gradientUnits="userSpaceOnUse" x1="611.3453" y1="343.6227" x2="707.4185" y2="484.5301">
			<stop  offset="2.688172e-02" style="stop-color:#F4D300"/>
			<stop  offset="0.871" style="stop-color:#FFFF00"/>
		</linearGradient>
		<path class="st5" d="M494.1,168.1c-1.3,0.5-2.6,1-3.9,1.5c1.2-0.4,2.4-0.8,3.7-1.1L494.1,168.1z"/>
		<linearGradient id="SVGID_7_" gradientUnits="userSpaceOnUse" x1="621.9886" y1="336.3658" x2="718.0619" y2="477.2733">
			<stop  offset="2.688172e-02" style="stop-color:#F4D300"/>
			<stop  offset="0.871" style="stop-color:#FFFF00"/>
		</linearGradient>
		<path class="st6" d="M739.1,436.4c0-22.6-6.1-43.8-16.8-61.9l-52.1-43.4c0,0-3.9-3.7-9.7-9c-13.6-5.2-28.3-8.1-43.8-8.1
			c-17.9,0-34.8,3.8-50.1,10.7c-1.2,0.5-2.3,1.1-3.5,1.6c0,0-10.8,5.5-11.7,5.8c-1.8,0.6-3.7,1.2-5.6,1.7
			c111.3-4.5,69.2,138,150,169.6c7.2,2.8,14.7,3,22.3,1.3c1.7-2.5,3.7-5.5,4-6.1C732.9,480.4,739.1,459.1,739.1,436.4z"/>
		<linearGradient id="SVGID_8_" gradientUnits="userSpaceOnUse" x1="621.9886" y1="336.3658" x2="718.0619" y2="477.2733">
			<stop  offset="2.688172e-02" style="stop-color:#F4D300"/>
			<stop  offset="0.871" style="stop-color:#FFFF00"/>
		</linearGradient>
		<path class="st7" d="M739.1,436.4c0-22.6-6.1-43.8-16.8-61.9l-52.1-43.4c0,0-3.9-3.7-9.7-9c-13.6-5.2-28.3-8.1-43.8-8.1
			c-17.9,0-34.8,3.8-50.1,10.7c-1.2,0.5-2.3,1.1-3.5,1.6c0,0-10.8,5.5-11.7,5.8c-1.8,0.6-3.7,1.2-5.6,1.7
			c111.3-4.5,69.2,138,150,169.6c7.2,2.8,14.7,3,22.3,1.3c1.7-2.5,3.7-5.5,4-6.1C732.9,480.4,739.1,459.1,739.1,436.4z"/>
	</g>
	<path class="st8" d="M752.4,430.6v-41.9c0,0,4.9-11.2,9.6-26.4c-5.7-1.6-10.6-3.6-16.1-5.9c-2.1-0.9-3.9-3.7-4.5-6
		c-6-25.4-11.1-51.1-17.4-76.4c-12.7-50.7-60.3-84.1-110.4-78c-45.9,5.5-86,43.8-94.5,90.6c-1.1,6.3-3.7,10.3-8.9,13.8
		c-39.2,26.7-78.3,53.5-117.3,80.4c-7.8,5.4-15.1,11.3-22.7,17c0.1,0.1,0.2,0.2,0.3,0.4c14.7-7.6,29.2-15.6,44.1-22.7
		c40.8-19.6,82.5-36.9,128.1-42c26.6-3,51.6,0.6,71.1,21.6c6,6.4,11.7,13.2,17,20.2c13.8,18.5,26.7,37.8,41.1,55.8
		c18.9,23.8,39.3,42.4,63.9,56.6L752.4,430.6z M569.9,274c-5.1,0-9.2-4.1-9.2-9.2s4.1-9.2,9.2-9.2c5.1,0,9.2,4.1,9.2,9.2
		S575,274,569.9,274z"/>
	<linearGradient id="SVGID_9_" gradientUnits="userSpaceOnUse" x1="761.6862" y1="358.9749" x2="473.9124" y2="69.4026">
		<stop  offset="0" style="stop-color:#00D3F6"/>
		<stop  offset="0.9946" style="stop-color:#002996"/>
	</linearGradient>
	<path class="st9" d="M401.6,246.9c0-0.1,0.1-0.2,0.1-0.3c34.6-95,125.7-162.9,232.7-162.9c61.4,0,117.6,22.4,160.9,59.4
		c0.5,0.5,1.1,0.9,1.6,1.4c0,0,2.7,2.4,3.1,2.8c30.5,30.6,49.4,72.9,49.4,119.5c0,0,0.3,10.3,0.2,12.4c-0.8,30.9-7.2,60.4-18.3,87.5
		c0,0-4.5,10.4-7.1,14.3c-14.3,21.6-38.8,35.8-66.7,35.8c-44.1,0-79.9-35.8-79.9-79.9c0-3.3,0.3-6.6,0.6-9.8
		c0.3-2.6,3.1-27.3,3.4-31.8c3.9-73.3-71.6-132.6-147.7-132.6c-58.3,0-108.7,34.2-132.1,83.6L401.6,246.9z"/>
	<linearGradient id="SVGID_10_" gradientUnits="userSpaceOnUse" x1="772.6203" y1="347.4896" x2="485.2044" y2="58.2774">
		<stop  offset="0" style="stop-color:#00E7F5"/>
		<stop  offset="0.105" style="stop-color:#00DEF0"/>
		<stop  offset="0.2784" style="stop-color:#00C5E4"/>
		<stop  offset="0.4985" style="stop-color:#009CCF"/>
		<stop  offset="0.7541" style="stop-color:#0064B4"/>
		<stop  offset="0.9946" style="stop-color:#002996"/>
	</linearGradient>
	<path class="st10" d="M824.3,381.1c2.6-3.9,7.1-14.3,7.1-14.3c11.1-27.1,17.5-56.6,18.3-87.5c0.1-2.1-0.2-12.4-0.2-12.4
		c0-46.7-18.9-88.9-49.4-119.5c-0.5-0.5-3.1-2.8-3.1-2.8c-0.5-0.5-1.1-0.9-1.6-1.4c-43.3-37-99.5-59.4-160.9-59.4
		c-95,0-177.6,53.5-219.1,132.1c28.6-39.1,102.8-115.8,233.2-92.1c92.9,16.9,128.5,100.9,114.6,168.7
		c-11.4,55.5,10.2,107.7,56.8,94.5C821.6,385.1,823,383.1,824.3,381.1z"/>
	<linearGradient id="SVGID_11_" gradientUnits="userSpaceOnUse" x1="704.9515" y1="395.3471" x2="438.7683" y2="127.5003">
		<stop  offset="0" style="stop-color:#004DAA"/>
		<stop  offset="0.9946" style="stop-color:#002996"/>
	</linearGradient>
	<path class="st11" d="M690,315.9c5.8-26.8,8.7-79.6-37.3-118.2c-20.7-17.4-60.6-45.1-120.5-43.1c-69.8,2.3-109.1,56.2-121.4,70.3
		c-2.2,4.6-4.2,9.3-6.1,14c0.2,0.2,0.4,0.4,0.7,0.6c24.7-45.7,73-76.7,128.6-76.7c76.1,0,151.6,59.3,147.7,132.6
		c-0.2,4.4-3.1,29.2-3.4,31.8c-0.3,3.2-0.6,6.5-0.6,9.8c0,44.1,35.8,79.9,79.9,79.9c2.2,0,4.4-0.1,6.6-0.3
		C720.9,416.9,674.8,385.7,690,315.9z"/>
	<g>
		<linearGradient id="SVGID_12_" gradientUnits="userSpaceOnUse" x1="539.0626" y1="632.7242" x2="539.1156" y2="632.7242">
			<stop  offset="0" style="stop-color:#FF64C9"/>
			<stop  offset="0.9946" style="stop-color:#7D0B84"/>
		</linearGradient>
		<path class="st12" d="M539.1,632.8c0,0,0-0.1-0.1-0.1C539.1,632.7,539.1,632.8,539.1,632.8L539.1,632.8z"/>
		<linearGradient id="SVGID_13_" gradientUnits="userSpaceOnUse" x1="349.2916" y1="486.4705" x2="591.1216" y2="486.4705">
			<stop  offset="0" style="stop-color:#FF64C9"/>
			<stop  offset="0.9946" style="stop-color:#7D0B84"/>
		</linearGradient>
		<path class="st13" d="M543.3,484.7c31.4,13.6,23.2,77.1-61,68.6c-41.9-4.2-70.9-46.8-86.7-102.8c-13.4-47.4-6.7-101.3-6.7-101.3
			l-3.6-8.5c-15.1-34.2-15.2-12.1-36.1,71.8c3.3,76.1,60.9,182.4,112.7,231.4c0.3,0.1,0.4,0.2,0.4,0.2c3.9,2.3,8.4,3.5,13.2,3.5
			c1.9,0,3.7-0.2,5.4-0.6l1.3-0.2c19.4-4,30.7-9.4,48.9-15.8c0.1,0.3-6.9,1.3-6.9,1.6c0-0.3,0-0.8,0-0.8c10.4-0.3,9-1.1,9.9-1.5
			c0.3-0.1,4.2-0.5,4.5-0.6c0.6-0.2,3-0.6,3.6-0.9c0.3-0.1,1.5-0.3,1.9-0.5c0.5-0.2,1.5-0.5,2.1-0.8c0.3-0.1,0.8-0.3,1.1-0.5
			c0.6-0.3,1.3-0.6,1.9-0.9c0.2-0.1,0.5-0.2,0.8-0.4c0.8-0.4,1.6-0.9,2.4-1.3c0.2-0.1,0.5-0.3,0.7-0.4c0.5-0.3,1.1-0.7,1.6-1
			c0.3-0.2,0.6-0.4,0.9-0.6c0.5-0.3,0.9-0.6,1.4-0.9c0.3-0.2,0.6-0.4,1-0.7c0.4-0.3,0.9-0.6,1.3-0.9c0.3-0.2,0.6-0.5,0.9-0.7
			c0.5-0.4,1-0.7,1.4-1.1c0.4-0.3,0.8-0.6,1.2-1c0.5-0.4,1-0.8,1.5-1.3c0.3-0.3,0.7-0.6,1-0.9c0.3-0.3,0.7-0.6,1-0.9
			c0.3-0.3,0.7-0.6,1-1c0.3-0.3,0.6-0.6,0.9-0.9c0.3-0.3,0.7-0.7,1-1c0.3-0.3,0.5-0.6,0.8-0.9c0.4-0.4,0.7-0.8,1-1.1
			c0.1-0.1,0.2-0.2,0.3-0.4c0.8-0.9,1.6-1.9,2.4-2.8c0.2-0.2,0.4-0.4,0.5-0.7c0.4-0.5,0.7-0.9,1-1.4c0.2-0.2,0.4-0.5,0.5-0.7
			c0.3-0.5,0.7-0.9,1-1.4c0.2-0.2,0.3-0.5,0.5-0.7c0.3-0.5,0.7-1,1-1.5c0.1-0.1,0.1-0.2,0.2-0.3c1.2-1.9,2.3-3.8,3.3-5.7
			c0.1-0.1,0.2-0.3,0.2-0.4c0.3-0.6,0.6-1.2,0.9-1.8c0.1-0.2,0.2-0.4,0.3-0.5c0.3-0.6,0.6-1.2,0.9-1.9c0.1-0.1,0.1-0.2,0.2-0.4
			c1.3-2.8,2.3-5.8,3.3-8.8c0-0.1,0.1-0.3,0.1-0.4c0.2-0.7,0.4-1.4,0.6-2.1c0-0.1,0.1-0.3,0.1-0.4c0.2-0.7,0.4-1.4,0.5-2.2
			c0.3-1.3,0.6-2.5,0.8-3.8c0-0.2,0.1-0.5,0.1-0.7c0.1-0.5,0.2-1.1,0.3-1.6c0.1-0.4,0.1-0.8,0.2-1.2c0.1-0.5,0.1-0.9,0.2-1.4
			c0.1-0.8,0.2-1.6,0.2-2.5c0-0.3,0-0.7,0.1-1c0-0.6,0.1-1.3,0.1-1.9c0-0.3,0-0.6,0-0.9c0-0.9,0.1-1.9,0.1-2.8l0,0
			C591.1,524.5,571.4,496.6,543.3,484.7z M538.6,630.9C538.6,630.9,538.6,630.9,538.6,630.9C538.6,630.9,538.6,630.9,538.6,630.9
			L538.6,630.9z"/>
	</g>
	<g>
		<path class="st14" d="M538.6,630.9L538.6,630.9L538.6,630.9C538.6,630.9,538.6,630.9,538.6,630.9z"/>
		<linearGradient id="SVGID_14_" gradientUnits="userSpaceOnUse" x1="475.1052" y1="679.3547" x2="283.085" y2="317.4174">
			<stop  offset="5.913978e-02" style="stop-color:#FF64C9"/>
			<stop  offset="1" style="stop-color:#F8C7E0"/>
		</linearGradient>
		<path class="st15" d="M463.4,658.4c0,0-0.1-1.1-0.3-2.6C462.6,656.3,462.6,657.1,463.4,658.4z"/>
		<linearGradient id="SVGID_15_" gradientUnits="userSpaceOnUse" x1="641.5512" y1="828.2357" x2="326.8846" y2="235.1231">
			<stop  offset="5.913978e-02" style="stop-color:#FF64C9"/>
			<stop  offset="1" style="stop-color:#F8C7E0"/>
		</linearGradient>
		<path class="st16" d="M388.4,354c0.4-1.3-2.1-5.2-1.8-6.5l2.3,1.7C388.9,349.2,388.7,350.9,388.4,354z"/>
		<linearGradient id="SVGID_16_" gradientUnits="userSpaceOnUse" x1="539.0626" y1="632.7242" x2="539.1156" y2="632.7242">
			<stop  offset="5.913978e-02" style="stop-color:#FF64C9"/>
			<stop  offset="1" style="stop-color:#F8C7E0"/>
		</linearGradient>
		<path class="st17" d="M539.1,632.8c0,0,0-0.1-0.1-0.1C539.1,632.7,539.1,632.8,539.1,632.8L539.1,632.8z"/>
		<linearGradient id="SVGID_17_" gradientUnits="userSpaceOnUse" x1="504.9178" y1="663.9482" x2="310.1919" y2="296.9109">
			<stop  offset="5.913978e-02" style="stop-color:#FF64C9"/>
			<stop  offset="1" style="stop-color:#F8C7E0"/>
		</linearGradient>
		<path class="st18" d="M388.9,349.2l-3.7-2.8c-3.8-3.6,0-1.4,0.1-2c-11.9-11.9-20.4,5-36.1,68c3.3,76.1,60.9,182.4,112.7,231.4
			c0.3,0.1,0.4,0.2,0.4,0.2c3.9,2.3,8.4,3.5,13.2,3.5c1.8,0,3.6-0.2,5.4-0.5c-31.9-33.1-75.9-84.3-89.3-131.8
			C365.1,420,388.9,349.2,388.9,349.2z"/>
	</g>
	<linearGradient id="SVGID_18_" gradientUnits="userSpaceOnUse" x1="319.5055" y1="162.5225" x2="315.5524" y2="538.0657">
		<stop  offset="0" style="stop-color:#00ED00"/>
		<stop  offset="0.9946" style="stop-color:#007300"/>
	</linearGradient>
	<path class="st19" d="M463.4,644.7c-54.9-51.6-89.2-124.9-89.2-206.2c0-50.7,13.3-98.3,36.7-139.5c0.7-1.2,5.4-8.9,6.3-10.7
		c5.9-11.3,9.3-25.5,9.3-39.1c0-44.8-36.3-82.5-81.1-82.5h-0.8c-97.3,0-176,81.3-176,178.8c0,21.7,3.9,43.3,11.1,62.5
		c2.4,6.4,11.8,27.7,13.8,31.3C249.8,541.1,347.3,617.1,463.4,644.7L463.4,644.7z"/>
	<linearGradient id="SVGID_19_" gradientUnits="userSpaceOnUse" x1="410.5916" y1="544.4909" x2="396.6173" y2="295.5738">
		<stop  offset="0" style="stop-color:#005E00"/>
		<stop  offset="0.8548" style="stop-color:#009900"/>
	</linearGradient>
	<path class="st20" d="M374.3,438.5c0-50.7,13.3-98.3,36.7-139.5c0.7-1.2,5.4-8.9,6.3-10.7c5.9-11.3,9.3-24.1,9.3-37.7
		c0-29.7-16-55.7-39.8-69.8v0c59.4,62.5,8.6,99.2-13.1,160.3c-21.8,61.1-21.8,118,5.2,190.7s84,112.2,84,112.2l0,0
		C408.3,592.5,374.3,519.5,374.3,438.5z"/>
	<linearGradient id="SVGID_20_" gradientUnits="userSpaceOnUse" x1="348.7348" y1="175.6488" x2="306.814" y2="577.8263">
		<stop  offset="0" style="stop-color:#E5F700"/>
		<stop  offset="0.9946" style="stop-color:#007300"/>
	</linearGradient>
	<path class="st21" d="M462.8,644.1C329.3,581.3,260,492.3,253,438.2c-12.4-96.2,21-129.5,90.8-167.7c41-22.4,43.6-88.1-5.9-100.7
		C243.7,174,168.6,251.7,168.6,347c0,21.7,3.9,42.6,11.1,61.8c2.4,6.4,11.8,27.4,13.8,30.9c56.3,101.6,153.6,177.3,269.4,205
		c0.1-0.1,0.2-0.1,0.3-0.2C463,644.4,462.9,644.2,462.8,644.1z"/>
	<g>
		<path class="st8" d="M554.5,530.1C554.5,530.1,554.5,530.1,554.5,530.1c-0.2,0.2-0.2,0.4-0.3,0.5
			C554.3,530.4,554.4,530.2,554.5,530.1z"/>
		<path class="st8" d="M566.4,550.7c-0.1-0.4-0.3-0.8-0.4-1.2c-0.3-0.8-0.6-1.6-0.9-2.3c-0.1-0.4-0.3-0.7-0.4-1.1
			c-0.4-0.9-0.9-1.9-1.4-2.7c-0.1-0.1-0.1-0.3-0.2-0.4c-0.6-1-1.2-2-1.8-2.9c-0.2-0.3-0.4-0.5-0.6-0.8c-0.5-0.7-1-1.3-1.5-2
			c-0.2-0.3-0.5-0.6-0.8-0.9c-0.5-0.6-1.1-1.2-1.6-1.8c-0.2-0.2-0.5-0.5-0.7-0.7c-0.8-0.8-1.7-1.5-2.6-2.2c0.2-0.3,0.4-0.6,0.6-0.9
			c-0.8,1.1-2.5,2-3.6,3.3c-0.8,1-3.6,2.3-4.7,3.3c-1,0.9,3.7,2.6,3.7,2.6c3.1,1.8,4.7,5.9,7,10.8c2.2,4.9-0.5,8.7,4.1,8.4
			c3.7-0.2,6-3.2,6.2-6.7C566.7,551.9,566.6,551.3,566.4,550.7z"/>
	</g>
	<g>
		<linearGradient id="SVGID_21_" gradientUnits="userSpaceOnUse" x1="539.0626" y1="632.7242" x2="539.1156" y2="632.7242">
			<stop  offset="0" style="stop-color:#7D0B84"/>
			<stop  offset="0.9086" style="stop-color:#5F0057"/>
		</linearGradient>
		<path class="st22" d="M539.1,632.8c0,0,0-0.1-0.1-0.1C539.1,632.7,539.1,632.8,539.1,632.8L539.1,632.8z"/>
		<linearGradient id="SVGID_22_" gradientUnits="userSpaceOnUse" x1="429.7598" y1="561.1002" x2="591.0173" y2="561.1002">
			<stop  offset="0" style="stop-color:#7D0B84"/>
			<stop  offset="0.9086" style="stop-color:#5F0057"/>
		</linearGradient>
		<path class="st23" d="M591,553.1c0-0.3,0-0.7-0.1-1c-0.1-1.1-0.2-2.2-0.3-3.3c0-0.2,0-0.4-0.1-0.6c-0.1-1.3-0.3-2.5-0.5-3.7
			c0-0.3-0.1-0.6-0.2-0.9c-0.2-1-0.4-2-0.6-3c-0.1-0.3-0.1-0.6-0.2-0.8c-0.3-1.2-0.6-2.4-0.9-3.6c-0.1-0.2-0.1-0.5-0.2-0.7
			c-0.3-1-0.6-2-0.9-2.9c-0.1-0.3-0.2-0.6-0.3-0.9c-0.4-1.2-0.8-2.3-1.3-3.4c0-0.1-0.1-0.2-0.1-0.3c-0.4-1-0.9-2.1-1.3-3.1
			c-0.1-0.3-0.3-0.6-0.4-0.9c-0.5-1-1-2-1.5-3c-0.1-0.1-0.1-0.2-0.2-0.3c-0.6-1.1-1.2-2.1-1.8-3.2c-0.2-0.3-0.3-0.5-0.5-0.8
			c-0.5-0.9-1-1.7-1.6-2.5c-0.1-0.2-0.3-0.4-0.4-0.6c-0.7-1-1.4-2-2.1-2.9c-0.2-0.2-0.3-0.4-0.5-0.7c-0.6-0.8-1.2-1.6-1.8-2.3
			c-0.2-0.2-0.4-0.5-0.6-0.7c-0.8-0.9-1.5-1.8-2.4-2.7c-0.1-0.1-0.3-0.3-0.4-0.4c-0.7-0.8-1.4-1.5-2.1-2.2c-0.2-0.2-0.5-0.5-0.7-0.7
			c-0.9-0.8-1.7-1.7-2.6-2.5c-0.1-0.1-0.2-0.2-0.3-0.3c-1-0.9-2.1-1.8-3.1-2.6c-0.2-0.1-0.3-0.3-0.5-0.4c-1.1-0.9-2.3-1.7-3.5-2.5
			c-0.2-0.2-0.4-0.3-0.7-0.5c-1.2-0.8-2.4-1.6-3.6-2.3c-0.2-0.1-0.4-0.2-0.6-0.3c-1.3-0.8-2.6-1.5-4-2.2c-0.3-0.1-0.6-0.3-0.8-0.4
			c-1.4-0.7-2.9-1.4-4.3-2c15.6,6.8,21.4,25.8,13.1,42.2c-1.2-0.5-12.8,4.2-50.5-4.5c-41.4-9.7-76.1-47.8-76.1-47.8
			c51.3,65.1,123.7,57.1,123.7,57.1c0.9,0.7,1.7,1.5,2.6,2.2c0.3,0.2,0.5,0.5,0.7,0.7c0.6,0.6,1.1,1.2,1.6,1.8
			c0.3,0.3,0.5,0.6,0.8,0.9c0.5,0.6,1,1.3,1.5,2c0.2,0.3,0.4,0.5,0.6,0.8c0.6,1,1.3,1.9,1.8,2.9c0.1,0.1,0.1,0.3,0.2,0.4
			c0.5,0.9,0.9,1.8,1.4,2.7c0.2,0.3,0.3,0.7,0.4,1.1c0.3,0.8,0.6,1.5,0.9,2.3c0.1,0.4,0.3,0.8,0.4,1.2c0.3,0.9,0.5,1.7,0.7,2.6
			c0.1,0.3,0.2,0.6,0.2,0.9c0.3,1.2,0.5,2.4,0.7,3.7c0.1,1,0.2,1.9,0.3,2.9c0,0.3,0,0.5,0,0.8c0.1,0.8,0.1,1.6,0.1,2.4
			c0,0.3,0,0.6,0,0.9c0,0.9,0,1.9-0.1,2.8c0,0.1,0,0.3,0,0.4c-0.1,1.1-0.2,2.2-0.3,3.3c0,0.3-0.1,0.6-0.1,0.9
			c-0.1,0.8-0.2,1.7-0.4,2.5c-0.1,0.3-0.1,0.7-0.2,1c-0.2,1.1-0.4,2.3-0.7,3.4c-12.5,52.7-91.1,68.3-91.1,68.3
			c1.9,0,3.7-0.2,5.4-0.6l1.3-0.2c2.4-0.5,4.8-1,7.2-1.6c1-0.2,2-0.5,3-0.7c1.4-0.3,2.8-0.6,4.1-1c1.8-0.5,3.7-0.9,5.5-1.4
			c0.5-0.1,1.1-0.3,1.6-0.4c2.1-0.5,4.1-1.1,6.2-1.7c0.3-0.1,0.6-0.2,0.8-0.2c9.3-2.6,18.5-10.6,27.6-13.9c0,0.4,0.1-3.3,0.2-3.3
			h0.1c0,0-7.3,4.7-7.3,4.4c0.1,0.2-7.2,5.7-7.2,5.8c0-0.3,0-1,0-1c10.4-0.3,9-1.2,9.9-1.5c0.3-0.1,4.2-0.5,4.5-0.6
			c0.6-0.2,3-0.6,3.6-0.9c0.3-0.1,1.5-0.3,1.9-0.5c0.5-0.2,1.5-0.5,2.1-0.8c0.3-0.1,0.8-0.3,1.1-0.5c0.6-0.3,1.3-0.6,1.9-0.9
			c0.2-0.1,0.5-0.2,0.8-0.4c0.8-0.4,1.6-0.9,2.4-1.3c0.2-0.1,0.5-0.3,0.7-0.4c0.5-0.3,1.1-0.7,1.6-1c0.3-0.2,0.6-0.4,0.9-0.6
			c0.5-0.3,0.9-0.6,1.4-0.9c0.3-0.2,0.6-0.4,1-0.7c0.4-0.3,0.9-0.6,1.3-0.9c0.3-0.2,0.6-0.5,0.9-0.7c0.5-0.4,1-0.7,1.4-1.1
			c0.4-0.3,0.8-0.6,1.2-1c0.2-0.2,0.5-0.4,0.7-0.6c0.2-0.2,0.5-0.4,0.7-0.6c0.3-0.2,0.5-0.5,0.8-0.7c0.1-0.1,0.1-0.1,0.2-0.2
			c0.2-0.2,0.3-0.3,0.5-0.5c0.2-0.2,0.3-0.3,0.5-0.5c0.3-0.3,0.7-0.6,1-1c0.3-0.3,0.6-0.6,0.9-0.9c0.3-0.3,0.7-0.7,1-1
			c0.1-0.1,0.3-0.3,0.4-0.4c0.1-0.1,0.3-0.3,0.4-0.4c0.4-0.4,0.7-0.8,1-1.1c0.1-0.1,0.2-0.2,0.3-0.4c0.5-0.6,1-1.1,1.4-1.7
			c0.3-0.4,0.6-0.7,0.9-1.1c0.2-0.2,0.4-0.4,0.5-0.7c0.2-0.3,0.5-0.6,0.7-0.9c0.1-0.2,0.2-0.3,0.4-0.5c0.1-0.1,0.2-0.2,0.3-0.3
			c0.1-0.1,0.2-0.3,0.3-0.4c0.3-0.5,0.7-0.9,1-1.4c0.2-0.2,0.3-0.5,0.5-0.7c0.1-0.1,0.2-0.3,0.3-0.4c0.3-0.4,0.5-0.8,0.8-1.2
			c0.1-0.1,0.1-0.2,0.2-0.3c0.6-0.9,1.2-1.9,1.7-2.8c0.6-1,1.1-1.9,1.6-2.9c0.1-0.1,0.2-0.3,0.2-0.4c0.3-0.6,0.6-1.2,0.9-1.8
			c0-0.1,0.1-0.2,0.1-0.3c0-0.1,0.1-0.2,0.1-0.3c0.3-0.6,0.6-1.2,0.9-1.9c0-0.1,0-0.1,0.1-0.2c0-0.1,0.1-0.1,0.1-0.2
			c0.6-1.3,1.1-2.6,1.6-3.9c0.1-0.4,0.3-0.8,0.4-1.2c0.2-0.5,0.4-1,0.5-1.5c0.3-0.7,0.5-1.5,0.7-2.2c0-0.1,0.1-0.3,0.1-0.4
			c0.2-0.7,0.4-1.4,0.6-2.1c0-0.1,0.1-0.3,0.1-0.4c0.2-0.7,0.4-1.4,0.5-2.2c0.1-0.6,0.3-1.3,0.4-1.9c0.1-0.6,0.3-1.3,0.4-1.9l0,0
			c0-0.2,0.1-0.5,0.1-0.7c0.1-0.5,0.2-1.1,0.3-1.6c0.1-0.4,0.1-0.8,0.2-1.2c0.1-0.5,0.1-0.9,0.2-1.4c0-0.4,0.1-0.8,0.1-1.2
			c0-0.4-7.2-0.8-7.2-1.2c0-0.3-7.3-0.6-7.3-1c0,0,0,0,0,0c0,0,0,0,0-0.1c0-0.6,7.4-1.3,7.5-1.9c0-0.3,3.7-0.6,3.7-0.9
			c0-0.9,1.9-1.9,1.9-2.8C589.3,555.6,591.1,554.3,591,553.1z"/>
	</g>
	<linearGradient id="SVGID_23_" gradientUnits="userSpaceOnUse" x1="559.9733" y1="529.8204" x2="559.9733" y2="529.8204">
		<stop  offset="0" style="stop-color:#7D0B84"/>
		<stop  offset="0.9086" style="stop-color:#5F0057"/>
	</linearGradient>
	<path class="st24" d="M560,529.8"/>
</g>
<g id="Texto">
	<g class="st25">
		<g class="st26">
			<path d="M152.2,829.2c0,6.1,1.1,11.2,3.3,15.4c2.2,4.2,5.1,7.6,8.7,10.2c3.6,2.6,7.8,4.6,12.7,5.8s9.9,1.9,15.3,1.9
				c3.5,0,7.3-0.3,11.4-0.9c4-0.6,7.8-1.7,11.4-3.4c3.5-1.7,6.5-4,8.9-7c2.4-2.9,3.5-6.7,3.5-11.3c0-4.9-1.6-8.9-4.7-11.9
				c-3.1-3-7.2-5.6-12.3-7.7c-5.1-2.1-10.8-3.9-17.2-5.3c-6.4-1.4-12.9-3.1-19.5-4.9c-6.8-1.7-13.3-3.8-19.7-6.2
				c-6.4-2.4-12.1-5.6-17.2-9.5c-5.1-3.9-9.1-8.7-12.3-14.4c-3.1-5.7-4.7-12.8-4.7-21.3c0-9.3,2-17.3,5.9-24.2
				c4-6.8,9.1-12.5,15.6-17.1c6.4-4.6,13.7-7.9,21.8-10.1c8.1-2.2,16.2-3.3,24.3-3.3c9.4,0,18.5,1.1,27.2,3.2
				c8.7,2.1,16.4,5.5,23.2,10.3c6.7,4.7,12.1,10.7,16.1,18.1c4,7.3,6,16.2,6,26.7h-38.5c-0.3-5.4-1.5-9.9-3.4-13.4
				c-1.9-3.5-4.5-6.3-7.7-8.3c-3.2-2-6.9-3.5-11.1-4.3c-4.2-0.8-8.7-1.3-13.4-1.3c-3.2,0-6.4,0.3-9.6,1c-3.2,0.7-6.1,1.9-8.7,3.5
				c-2.6,1.7-4.8,3.8-6.4,6.4c-1.7,2.6-2.5,5.8-2.5,9.5c0,3.5,0.7,6.4,2,8.6c1.3,2.2,4,4.2,8,5.9c4,1.8,9.5,3.6,16.4,5.6
				c7,1.9,16.2,4.4,27.5,7.2c2.2,0.5,5.1,1.2,8.6,2.1c3.5,0.9,7.3,2.2,11.3,3.8c4,1.6,7.9,3.7,11.9,6.2c4,2.5,7.6,5.6,10.9,9.4
				c3.3,3.7,6,8.1,8,13.3c2,5.2,3,11.1,3,17.8c0,8.3-1.6,15.9-4.8,23c-3.2,7.1-8,13.2-14.3,18.3c-6.3,5.2-14.2,9.2-23.5,12.1
				c-9.4,3-20.2,4.4-32.5,4.4c-10,0-19.6-1.3-29-3.8c-9.4-2.5-17.6-6.4-24.7-11.6c-7.1-5.2-12.8-11.9-17.1-20
				c-4.3-8.1-6.4-17.7-6.2-28.8H152.2z"/>
			<path d="M289.4,708.5h39.7v180.7h-39.7V708.5z"/>
			<path d="M360.2,707.7h39v146.7h92.6v33.4H360.2V707.7z"/>
			<path d="M574.7,889.1H530l-58.7-180.7h41l40.2,127h0.5l40.7-127h41L574.7,889.1z"/>
			<path d="M650.1,708.5h39.7v180.7h-39.7V708.5z"/>
			<path d="M707.6,889.1l82-180.4h40l80.7,180.4h-37.2l-19-40h-91.3l-19,40H707.6z M810.1,742.6l-30.4,69.8h60l-29.3-69.8H810.1z"/>
		</g>
	</g>
	<g>
		<path class="st27" d="M183.7,944.4c0.6,0.3,0.7,0.7,0.5,1.2c-0.3,0.7-0.7,1.4-1.2,2.1c-0.5,0.7-1.1,1.5-1.8,2.2
			c-0.7,0.8-1.5,1.4-2.5,1.9c-1,0.5-1.9,0.7-2.9,0.7c-1.4,0-2.7-0.5-3.8-1.4c0,0,0,0.1-0.1,0.1c0,0.1-0.1,0.1-0.1,0.2
			c-0.4,0.9-0.8,1.8-1.2,2.6c-0.4,0.8-1,1.7-1.6,2.6c-0.6,0.9-1.4,1.6-2.2,2.2c-0.8,0.5-1.6,0.8-2.4,0.8c-2.4,0-4.3-0.9-5.8-2.8
			c-1.2-1.5-2.1-3.6-2.7-6.3c-0.6-2.7-0.8-5.1-0.8-7.2c0-2.1,0.2-3.8,0.5-5.2c0.2-0.7,0.6-1.2,1.2-1.5c0.6-0.3,1.4-0.4,2.2-0.2
			c0.9,0.2,1.5,0.6,2,1.1c0.5,0.5,0.6,1.1,0.5,1.8c-0.5,2-0.6,5-0.2,9c0.4,4,1.2,6.6,2.4,8.1c0.4,0.5,0.8,0.8,1.3,0.8
			c0.8,0,1.6-0.5,2.4-1.6c0.9-1,1.7-2.5,2.5-4.4v0c0-0.1,0.1-0.1,0.1-0.2c0-0.1,0.1-0.2,0.1-0.2c0.1-0.2,0.1-0.4,0.2-0.6
			c0.1-0.3,0.2-0.5,0.2-0.6c-0.4-0.6-0.6-1.1-0.9-1.5c-1.2-2.4-1.8-5.3-1.8-8.5c0-2,0.2-3.7,0.7-5.2c0.6-1.8,1.5-2.7,2.8-2.7
			c1.3,0,2.2,0.7,2.8,2.1c0.4,1,0.6,2.2,0.6,3.7c0,3.6-0.7,7.5-2.2,11.8c0.9,1,1.9,1.5,3.1,1.5c1.3,0,2.6-0.6,3.9-1.9
			c1.3-1.2,2.2-2.6,2.8-4C182.8,944.3,183.2,944.2,183.7,944.4z M171.4,947.2c1.1-3.7,1.7-7,1.6-9.8c0-1.1-0.1-2-0.4-2.8
			c-0.3-0.8-0.6-1.2-1.2-1.2c-0.2,0-0.5,0.2-0.7,0.6c-0.3,0.4-0.5,1.1-0.7,2.1c-0.2,1-0.3,2.1-0.3,3.3
			C169.9,942.5,170.4,945.1,171.4,947.2z"/>
		<path class="st27" d="M208.8,944.3c0.2-0.1,0.5-0.2,0.7-0.1c0.2,0.1,0.4,0.2,0.6,0.4c0.1,0.2,0.2,0.4,0.1,0.7
			c-0.5,2.8-1.4,5.5-2.5,8c-1.9,4.1-4,6.2-6.5,6.2c-2,0-3.5-0.7-4.6-2.2c-1.2-1.5-2-3.9-2.2-7v0.1c-0.3,0.7-0.5,1.3-0.7,1.6v0.1
			c-1.6,3.4-3.5,5.2-5.7,5.2c-1.6,0-3-0.7-4.2-2c-1.2-1.4-1.9-3.5-2.1-6.3c-0.2-4,0.9-7.3,3.4-10c1.9-2,3.9-3,6.2-3
			c1.7,0,3,0.5,4,1.5c0.1-0.9,0.2-1.3,0.3-1.5c0.2-0.7,0.6-1.2,1.2-1.5c0.6-0.3,1.4-0.4,2.2-0.2c0.9,0.2,1.5,0.6,2,1.1
			c0.5,0.5,0.6,1.1,0.5,1.8c-0.5,2-0.8,4.3-1.1,6.9c-0.3,2.6-0.4,5.2-0.3,7.7c0.1,2.5,0.4,4.2,1.1,4.9c0.2,0.2,0.4,0.4,0.6,0.4
			c0.7,0,1.5-0.5,2.4-1.6c0.9-1.1,1.6-2.4,2.3-4.2v0c0.9-2.3,1.5-4.4,1.9-6.3C208.4,944.7,208.6,944.5,208.8,944.3z M194.6,941.4
			c-0.1-1.5-0.6-2.3-1.6-2.3c-0.7,0-1.4,0.5-2.3,1.4c-1,1.1-1.8,2.5-2.5,4.3c-0.6,1.8-0.9,3.8-0.8,6c0.1,0.7,0.2,1.3,0.4,1.9
			c0.2,0.5,0.4,0.9,0.6,1.1c0.2,0.2,0.4,0.3,0.5,0.3c1,0,1.9-0.9,2.7-2.7c0.1-0.3,0.3-0.6,0.3-0.7c0.2-0.3,0.3-0.8,0.6-1.4
			c0.5-1.5,1.1-3.5,1.7-6.1c0,0,0-0.1,0-0.2c0-0.1,0-0.2,0-0.2C194.5,942.4,194.6,942,194.6,941.4z"/>
		<path class="st27" d="M227.3,945.1L227.3,945.1c0,0.2,0,0.2,0,0.3v0c0,0,0,0.1,0,0.1v0l0,0v0h0l0,0v0v0l0,0l-0.1,0.1v0
			c-0.1,0-0.1,0-0.1,0l-0.1,0c0,0,0,0,0,0c0,0,0,0,0,0c0,0,0,0,0,0h-0.1h0l0,0h-0.1h-0.1h0c-0.1,0-0.2,0-0.2,0
			c-0.9-0.3-1.7-0.7-2.4-1.2c-0.7-0.5-1.2-1.1-1.6-1.6c-0.4-0.5-0.7-1.2-1-2c-0.3-0.8-0.5-1.5-0.6-1.9c-0.1-0.5-0.2-1.1-0.3-1.8
			c-0.2-1.1-0.3-1.7-0.4-1.8c-0.9,0.3-1.9,1.6-3,4.2l0,0c-0.3,0.7-0.5,1.4-0.8,2.1c-0.7,2.1-1.2,4.3-1.6,6.6
			c-0.4,2.3-0.6,4.2-0.6,5.7c0,0.1,0,0.3,0,0.5c0,0.2,0.1,0.4,0.1,0.5c0,0.5-0.1,0.9-0.4,1.3c-0.3,0.4-0.7,0.6-1.2,0.7
			c-0.1,0-0.3,0-0.5,0c-0.7,0-1.3-0.2-1.9-0.5c-0.6-0.4-1-0.8-1.1-1.4c-0.7-2.7-1-6-1-9.8c0-2.6,0.1-5.3,0.4-8
			c0.1-0.8,0.5-1.5,1.2-2c0.7-0.5,1.5-0.7,2.3-0.7c0.7,0,1.3,0.3,1.8,0.9c0.5,0.5,0.7,1.3,0.6,2.3v0.1c-0.2,2.4-0.3,4.1-0.4,5.3
			c0.1-0.5,0.2-0.9,0.4-1.2v0c0.2-0.9,0.6-1.9,1-2.9c1.9-4.7,4.2-7,6.8-7c1.7,0,2.8,0.7,3.4,2.2c0.3,0.7,0.5,2.1,0.7,4.2
			c0.2,2.9,0.7,4.9,1.3,6.2v0l0,0l0,0.1v0v0c0,0,0,0,0,0V945.1z"/>
		<path class="st27" d="M244.1,944.1c0.2-0.1,0.3-0.2,0.3-0.2s0.1,0,0.4,0.1c0.2,0.1,0.4,0.2,0.6,0.4c0.1,0.2,0.2,0.4,0.1,0.7
			c-0.2,1.3-0.7,2.9-1.4,4.7v0l0,0.1c0,0-0.1,0.1-0.1,0.1c0,0.1-0.1,0.1-0.1,0.2c-1.9,4.4-4.3,6.7-7.2,6.7c-2.1,0-3.8-0.7-4.9-2.3
			c-1.6-2.1-2.3-5.4-2.1-10.1c0.2-2.8,0.6-5.7,1.3-8.9c0.2-0.7,0.6-1.2,1.2-1.5c0.6-0.3,1.4-0.4,2.2-0.2c0.9,0.2,1.5,0.6,2,1.1
			c0.5,0.6,0.6,1.1,0.5,1.8c-0.5,2.1-0.8,4.2-1.1,6.5c-0.3,2.3-0.4,4.4-0.3,6.5c0.1,2.1,0.4,3.5,1,4.2c0.2,0.3,0.5,0.4,0.8,0.4
			c0.9,0,1.7-0.5,2.7-1.4c0.9-1,1.7-2.3,2.4-3.9c0.7-1.6,1.1-3.1,1.4-4.5C243.7,944.5,243.8,944.3,244.1,944.1z M234.6,932.7
			c-0.9,0-1.7-0.3-2.3-0.9c-0.6-0.6-0.9-1.4-0.9-2.4c0-1,0.3-1.8,1-2.5c0.7-0.7,1.5-1,2.4-1c0.9,0,1.7,0.3,2.2,0.9s0.9,1.4,0.9,2.4
			c0,0.9-0.3,1.7-1,2.4C236.4,932.3,235.6,932.7,234.6,932.7z"/>
		<path class="st27" d="M269.9,944c0.2-0.1,0.5-0.2,0.7-0.1s0.4,0.2,0.6,0.4c0.1,0.2,0.2,0.4,0.1,0.7c-0.5,2.8-1.4,5.5-2.5,8
			c-1.9,4.1-4,6.2-6.5,6.2c-2,0-3.5-0.7-4.6-2.2c-1.2-1.5-2-3.9-2.2-7v0.1c-0.3,0.7-0.5,1.3-0.7,1.6v0.1c-1.6,3.4-3.5,5.2-5.7,5.2
			c-1.6,0-3-0.7-4.2-2c-1.2-1.4-1.9-3.5-2.1-6.3c-0.2-4,0.9-7.3,3.4-10c1.9-2,3.9-3,6.2-3c1.7,0,3,0.5,4,1.5
			c0.1-0.9,0.2-1.3,0.3-1.5c0.2-0.7,0.6-1.2,1.2-1.5c0.6-0.3,1.4-0.4,2.2-0.2c0.9,0.2,1.5,0.6,2,1.1c0.5,0.5,0.6,1.1,0.5,1.8
			c-0.5,2-0.8,4.3-1.1,7c-0.3,2.6-0.4,5.2-0.3,7.7c0.1,2.5,0.4,4.2,1.1,4.9c0.2,0.2,0.4,0.4,0.6,0.4c0.7,0,1.5-0.5,2.4-1.6
			c0.9-1.1,1.6-2.4,2.3-4.2v0c0.9-2.3,1.5-4.4,1.9-6.3C269.6,944.3,269.7,944.1,269.9,944z M255.8,941.1c-0.1-1.5-0.6-2.3-1.6-2.3
			c-0.7,0-1.4,0.5-2.3,1.4c-1,1.1-1.8,2.5-2.5,4.3c-0.6,1.8-0.9,3.8-0.8,6c0.1,0.7,0.2,1.3,0.4,1.9c0.2,0.5,0.4,0.9,0.6,1.1
			c0.2,0.2,0.4,0.3,0.5,0.3c1,0,1.9-0.9,2.7-2.7c0.1-0.3,0.3-0.6,0.3-0.7c0.2-0.3,0.3-0.8,0.6-1.4c0.5-1.5,1.1-3.5,1.7-6.1
			c0,0,0-0.1,0-0.2c0-0.1,0-0.2,0-0.2C255.7,942.1,255.7,941.7,255.8,941.1z"/>
		<path class="st27" d="M291.5,944c0.4,0.5,0.4,0.9-0.1,1.3c-2.5,2.2-5.7,4.1-9.6,5.7c1.1,1.7,1.7,3.3,1.8,4.9v0.2v0
			c0,1.7-0.7,3.2-2.1,4.4c-1.3,1.2-2.9,1.7-4.7,1.8c-2.4,0-4.1-0.5-5.2-1.6c-0.8-0.8-1.2-1.9-1.2-3.3v0v-0.1c0-1.9,0.9-3.4,2.5-4.5
			c0.6-0.4,1.4-0.9,2.4-1.3c-0.2-0.2-0.5-0.5-1-0.9c-0.8-0.7-1.4-1.3-1.7-1.6c-0.4-0.4-0.9-0.9-1.4-1.5c-0.6-0.7-1-1.3-1.3-1.9
			c-0.6-1-1-2.1-1-3.2v-0.2v0c0-2.1,1-4,3-5.7c1.9-1.5,3.9-2.3,6.1-2.3c1.1,0,2,0.2,2.8,0.5c0.8,0.4,1.4,0.8,1.8,1.4
			c0.4,0.6,0.7,1.1,0.9,1.7c0.2,0.5,0.3,1.1,0.3,1.6v0v0.1v0l0,0c-0.1,0.3-0.2,0.5-0.5,0.7l0,0h0h0l-0.1,0h0h0h0l-0.1,0h-0.1h-0.1
			h-0.1c-0.1,0-0.1,0-0.2-0.1l0,0h0l0,0l0,0h0l0,0c0,0,0,0,0,0v0l-0.1-0.1l0,0c0,0,0,0,0,0c0,0,0,0,0,0v0l0,0v0l0,0c0,0,0-0.1,0-0.2
			v-0.1c0-0.3-0.1-0.5-0.1-0.8c-0.1-0.3-0.2-0.6-0.4-0.9c-0.2-0.4-0.5-0.7-1-0.9c-0.5-0.2-1-0.3-1.7-0.3c-1.2,0-2.2,0.5-3.1,1.4
			c-0.8,0.9-1.2,2-1.2,3.1c0,0.5,0.2,1.1,0.6,1.8c0.4,0.7,0.8,1.2,1.3,1.7c0.4,0.5,1.1,1.1,1.9,2c1,1,1.9,2,2.8,3.1
			c4-1.6,7.2-3.4,9.6-5.6c0.2-0.2,0.4-0.2,0.7-0.2C291.1,943.7,291.4,943.8,291.5,944z M275.1,960.2c0.7,0,1.4-0.3,2.2-1
			c0.8-0.6,1.2-1.6,1.2-2.9c0-0.9-0.6-2-1.8-3.3c-1.6,0.6-2.7,1.3-3.4,1.9c-0.7,0.6-1.1,1.5-1.1,2.5c0,0.9,0.3,1.6,0.9,2
			C273.6,960,274.3,960.2,275.1,960.2z"/>
		<path class="st28" d="M330.2,943.6c0.2-0.1,0.5-0.1,0.7,0.1c0.2,0.1,0.4,0.3,0.5,0.6c0.1,0.3,0.1,0.5,0,0.7
			c-0.7,1.4-1.1,2.2-1.2,2.4c-1.5,3.3-2.8,5.7-3.6,7.1c-0.4,0.6-0.7,1.1-0.9,1.4c-2.3,3.5-4.6,5.2-6.9,5.2c-2.7,0-5-1.3-6.7-3.8
			c-1.7-2.4-2.6-5.6-2.6-9.5c0-3.9,0.9-7.1,2.8-9.8c1.9-2.7,3.9-4,6.2-4c1.1,0,2,0.2,2.8,0.5c0.8,0.4,1.4,0.8,1.8,1.4
			c0.4,0.6,0.7,1.1,0.9,1.7c0.2,0.6,0.3,1.1,0.3,1.6c0,0.2-0.1,0.5-0.3,0.6c-0.2,0.2-0.4,0.3-0.7,0.3c-0.2,0-0.5-0.1-0.6-0.2
			c-0.2-0.2-0.3-0.4-0.3-0.7v0c0-0.2-0.1-0.4-0.1-0.6c-0.1-0.2-0.2-0.5-0.5-0.7c-0.3-0.3-0.7-0.4-1.3-0.4c-1.1,0-2.2,1.1-3.3,3.2
			c-1.1,2.1-1.6,4.7-1.6,7.8c0,2.8,0.5,5.1,1.4,7.1c0.9,2,2,2.9,3,2.9c0.8,0,1.7-0.6,2.8-1.9c0.6-0.7,1.4-1.8,2.2-3.1l0.1-0.1
			c1-1.6,2.1-3.9,3.5-6.9c0.6-1.3,1-2.1,1.2-2.5C329.8,943.8,330,943.7,330.2,943.6z"/>
		<path class="st28" d="M357.7,943.4c0.3,0,0.5,0.2,0.6,0.4c0.1,0.2,0.2,0.5,0.1,0.7c-0.5,2.8-1.4,5.5-2.5,8c-1.9,4.1-4,6.2-6.5,6.2
			c-1.9,0-3.4-0.7-4.5-2.1c-1.2-1.6-2-4-2.2-7.4c-1.7,4.8-3.7,7.3-6.1,7.3c-2.2,0-3.9-0.8-5.2-2.5c-0.9-1.1-1.5-2.6-2-4.4
			s-0.6-3.7-0.6-5.6c0-1.9,0.1-3.6,0.3-5.1c0.2-1.5,0.4-2.7,0.6-3.8c0.2-0.7,0.6-1.2,1.2-1.5c0.6-0.3,1.4-0.4,2.2-0.2
			c0.9,0.2,1.5,0.6,2,1.1c0.5,0.6,0.6,1.1,0.5,1.8c-0.6,2.7-0.9,5.7-0.9,9.1c0,4,0.5,6.7,1.5,7.9c0.3,0.4,0.6,0.5,0.9,0.5
			c1.2,0,2.8-2.9,4.7-8.6c0.5-1.8,0.9-3.9,1.4-6.2c0.1-0.2,0.1-0.4,0.1-0.7v0c0.2-1.1,0.4-2.4,0.8-4c0.2-0.7,0.6-1.2,1.2-1.5
			c0.6-0.3,1.4-0.4,2.2-0.2c0.9,0.2,1.5,0.6,2,1.1s0.6,1.1,0.5,1.8c-0.5,2.2-0.9,4.6-1.2,7.3c-0.3,2.7-0.5,5.4-0.4,8
			c0,2.6,0.4,4.2,1,5c0.2,0.2,0.4,0.3,0.6,0.3c0.7,0,1.5-0.5,2.4-1.6c0.9-1,1.6-2.4,2.3-4.2v0c0.9-2.2,1.5-4.3,1.8-6.3
			c0-0.3,0.2-0.5,0.4-0.6C357.2,943.4,357.4,943.4,357.7,943.4z"/>
		<path class="st28" d="M375.2,914l0,0.2v0.5v0c0,1.8-0.5,3.7-1.5,5.8c-1,2.1-2.2,4.1-3.6,6c-1.5,1.9-2.8,3.6-4.1,5
			c-1.3,1.4-2.5,2.6-3.7,3.7c-0.5,3.9-0.8,7.5-0.8,11c0,5.2,0.3,8.9,0.8,11.1c0.4,1.6,0.9,2.4,1.5,2.4c0.7,0,1.6-0.9,2.8-2.6
			c0.8-1.1,1.6-2.6,2.4-4.4c0,0,0.1-0.1,0.1-0.1c0,0,0-0.1,0.1-0.1c1.4-3,2.6-5.9,3.4-8.5c0.1-0.2,0.3-0.4,0.5-0.6
			c0.2-0.1,0.5-0.1,0.7,0c0.2,0.1,0.4,0.3,0.5,0.5c0.1,0.2,0.1,0.4,0.1,0.7c-1,3.2-2.4,6.5-4.1,9.9c0,0.1-0.1,0.1-0.1,0.2
			c0,0.1-0.1,0.1-0.1,0.2c-2.5,4.8-4.7,7.2-6.8,7.2c-0.7,0-1.3-0.1-1.9-0.3c-0.6-0.2-1.3-0.7-2-1.4c-0.7-0.7-1.4-1.7-1.9-2.9
			c-0.5-1.2-1-2.9-1.3-5.1c-0.4-2.2-0.6-4.7-0.6-7.5c-0.1-9.9,1.5-18.5,4.7-25.9c1.5-3.5,3.2-6.2,5.1-8.1c1.9-1.9,3.8-2.9,5.8-2.9
			c0.8,0,1.6,0.3,2.2,1C374.6,909.9,375.2,911.6,375.2,914L375.2,914z M373.4,914.6l0-0.6v-0.3c-0.1-1.1-0.3-1.9-0.7-2.4
			c-0.2-0.2-0.4-0.3-0.7-0.3c-0.3,0-0.8,0.3-1.4,0.9c-0.6,0.6-1.3,1.7-2.2,3.3c-0.9,1.6-1.8,3.6-2.6,6c-1.3,3.7-2.2,7.3-2.9,10.8
			c1.5-1.5,3.1-3.3,4.6-5.3C371.4,921.9,373.3,917.8,373.4,914.6z"/>
		<path class="st28" d="M410.3,923.5c1.4,1.2,2.1,2.7,2.1,4.4c0,0.5-0.2,1-0.6,1.4c-0.4,0.4-1,0.6-1.9,0.6h-0.2
			c-0.8,0-1.6-0.2-2.3-0.5s-1.1-0.8-1.2-1.4c-0.1-1.4-0.9-2.7-2.3-3.8c-1.4-1.1-3.6-1.6-6.3-1.6c-0.9,0.1-1.8,0.1-2.8,0.2h0
			c-1.8,0.2-5.8,1-12.1,2.4c-0.2,0.1-0.5,0.1-0.9,0.2c-0.4,0.1-0.8,0.2-1,0.2c-2,8.8-3,16.4-2.9,22.8c0,3.8,0.3,6.9,0.7,9.3
			c0.5,2.7,1.3,4,2.2,4c0.1,0,0.2,0,0.3-0.1c0.1-0.1,0.4-0.3,0.9-0.8c0.4-0.5,0.9-1.2,1.4-2.1c1.1-2,2.1-4.4,3-7.1
			c0.7-2.3,1.4-4.6,1.9-6.8c0-0.1,0.1-0.2,0.1-0.4c0.1-0.2,0.1-0.3,0.1-0.4c0.1-0.3,0.2-0.5,0.4-0.6c0.2-0.1,0.4-0.2,0.7-0.1
			c0.3,0.1,0.5,0.2,0.6,0.4c0.1,0.2,0.1,0.5,0.1,0.7c0,0.1-0.1,0.2-0.1,0.4c0,0.2-0.1,0.3-0.1,0.4c-1.1,4.3-2.2,7.9-3.3,10.8
			c-2.2,5.4-4.5,8.1-6.8,8.2c-2.1,0-3.9-1.5-5.6-4.5c-1.6-3-2.4-7.1-2.5-12.2c0-5.8,0.8-12.7,2.5-20.5c-2,0.4-3.2,0.6-3.6,0.6
			c-1.2,0.3-2.4,0.5-3.7,0.5c-1.3,0.2-2.4,0.2-3.5,0.2c-1.8,0-3.3-0.4-4.7-1.1c-1.3-0.7-2.4-1.8-3.1-3.2c-0.8-1.6-1.2-3.3-1-5.4
			c0.1-1.9,0.7-3.5,1.7-4.9c0.1-0.1,0.1-0.2,0.3-0.3c1-0.5,1.8-0.7,2.6-0.6c0.8,0.1,1.4,0.4,1.9,0.8c0.8,0.7,1,1.5,0.5,2.4
			c-0.3,0.6-0.6,1.3-0.8,2.2c-0.3,0.9-0.4,2-0.4,3.3c0,1.3,0.3,2.3,0.9,3.1c1,1.2,2.8,1.8,5.5,1.6c0.6-0.1,1.8-0.2,3.5-0.5h0.1
			c0.9-0.2,2.3-0.4,4.3-0.8c0,0,0-0.1,0-0.1c1.3-5.7,2.8-10.9,4.4-15.6c0.2-0.6,0.6-1,1.3-1.3c0.6-0.2,1.3-0.2,2.1,0
			c0.8,0.3,1.4,0.7,1.8,1.4s0.4,1.4,0.1,2.2c-1.3,4-2.4,8-3.4,12c0.1,0,0.3-0.1,0.5-0.1c0.3-0.1,0.4-0.1,0.5-0.1
			c5.7-1.3,9.8-2.1,12.3-2.4h0.1c1.2-0.2,2.1-0.2,2.9-0.2C403.6,920.4,407.9,921.3,410.3,923.5z"/>
		<path class="st28" d="M416.7,943.1c0.3,0,0.5,0.2,0.6,0.4c0.1,0.2,0.2,0.5,0.1,0.7c-0.5,2.8-1.4,5.5-2.5,8c-1.9,4.1-4,6.2-6.5,6.2
			c-1.9,0-3.4-0.7-4.5-2.1c-1.2-1.6-2-4-2.2-7.4c-1.7,4.8-3.7,7.3-6.1,7.3c-2.2,0-3.9-0.8-5.2-2.5c-0.9-1.1-1.5-2.6-2-4.4
			c-0.4-1.8-0.6-3.7-0.6-5.6c0-1.9,0.1-3.6,0.3-5.1c0.2-1.5,0.4-2.7,0.6-3.8c0.2-0.7,0.6-1.2,1.2-1.5c0.6-0.3,1.4-0.4,2.2-0.2
			c0.9,0.2,1.5,0.6,2,1.1c0.5,0.6,0.6,1.1,0.5,1.8c-0.6,2.7-0.9,5.7-0.9,9.1c0,4,0.5,6.7,1.5,7.9c0.3,0.4,0.6,0.5,0.9,0.5
			c1.2,0,2.8-2.9,4.7-8.6c0.5-1.8,0.9-3.9,1.4-6.2c0.1-0.2,0.1-0.4,0.1-0.7v0c0.2-1.1,0.4-2.4,0.8-4c0.2-0.7,0.6-1.2,1.2-1.5
			c0.6-0.3,1.4-0.4,2.2-0.2c0.9,0.2,1.5,0.6,2,1.1s0.6,1.1,0.5,1.8c-0.5,2.2-0.9,4.6-1.2,7.3c-0.3,2.7-0.5,5.4-0.4,8
			c0,2.6,0.4,4.2,1,5c0.2,0.2,0.4,0.3,0.6,0.3c0.7,0,1.5-0.5,2.4-1.6c0.9-1,1.6-2.4,2.3-4.2v0c0.9-2.2,1.5-4.3,1.8-6.3
			c0-0.3,0.2-0.5,0.4-0.6C416.2,943.1,416.4,943,416.7,943.1z"/>
		<path class="st28" d="M434.5,944L434.5,944c0,0.2,0,0.2,0,0.3v0c0,0,0,0.1,0,0.1v0l0,0v0h0l0,0v0v0l0,0l-0.1,0.1v0
			c-0.1,0-0.1,0-0.1,0l-0.1,0c0,0,0,0,0,0c0,0,0,0,0,0c0,0,0,0,0,0l-0.1,0h0l0,0h-0.1h-0.1h0c-0.1,0-0.2,0-0.2,0
			c-0.9-0.3-1.7-0.7-2.4-1.2c-0.7-0.5-1.2-1.1-1.6-1.6c-0.4-0.5-0.7-1.2-1-2c-0.3-0.8-0.5-1.5-0.6-1.9c-0.1-0.5-0.2-1.1-0.3-1.8
			c-0.2-1.1-0.3-1.7-0.4-1.8c-0.9,0.3-1.9,1.6-3,4.2l0,0c-0.3,0.7-0.5,1.5-0.8,2.1c-0.7,2.1-1.2,4.3-1.6,6.6
			c-0.4,2.3-0.6,4.2-0.6,5.7c0,0.1,0,0.3,0,0.5c0,0.2,0.1,0.4,0.1,0.5c0,0.5-0.1,0.9-0.4,1.3c-0.3,0.4-0.7,0.6-1.2,0.7
			c-0.1,0-0.3,0-0.5,0c-0.7,0-1.3-0.2-1.9-0.5c-0.6-0.4-1-0.8-1.1-1.4c-0.7-2.7-1-6-1-9.8c0-2.6,0.1-5.3,0.4-8
			c0.1-0.8,0.5-1.5,1.2-2c0.7-0.5,1.5-0.7,2.3-0.7c0.7,0.1,1.3,0.3,1.8,0.9c0.5,0.5,0.7,1.3,0.6,2.3v0.1c-0.2,2.4-0.3,4.1-0.4,5.3
			c0.1-0.5,0.2-0.9,0.4-1.2v0c0.2-0.9,0.6-1.9,1-2.9c1.9-4.7,4.2-7,6.8-7c1.7,0,2.8,0.7,3.4,2.1c0.3,0.7,0.5,2.1,0.7,4.2
			c0.2,2.9,0.7,5,1.3,6.2v0l0,0l0,0.1v0v0c0,0,0,0,0,0V944z"/>
		<path class="st28" d="M463.9,943c0.2-0.1,0.5-0.2,0.7-0.1c0.2,0.1,0.4,0.2,0.6,0.4c0.1,0.2,0.2,0.4,0.1,0.7
			c-0.5,2.8-1.4,5.5-2.5,8c-1.9,4.1-4,6.2-6.5,6.2c-2,0-3.5-0.7-4.6-2.2c-1.2-1.5-2-3.9-2.2-7v0.1c-0.3,0.7-0.5,1.3-0.7,1.6v0.1
			c-1.6,3.4-3.5,5.2-5.7,5.2c-1.6,0-3-0.7-4.2-2c-1.2-1.4-1.9-3.5-2.1-6.3c-0.2-4,0.9-7.3,3.4-10c1.9-2,3.9-3,6.2-3
			c1.7,0,3,0.5,4,1.5c0.1-0.9,0.2-1.3,0.3-1.5c0.2-0.7,0.6-1.2,1.2-1.5c0.6-0.3,1.4-0.4,2.2-0.2c0.9,0.2,1.5,0.6,2,1.1
			s0.6,1.1,0.5,1.8c-0.5,2-0.8,4.3-1.1,6.9c-0.3,2.6-0.4,5.2-0.3,7.7s0.4,4.2,1.1,4.9c0.2,0.2,0.4,0.4,0.6,0.4
			c0.7,0,1.5-0.5,2.4-1.6c0.9-1.1,1.6-2.4,2.3-4.2v0c0.9-2.3,1.5-4.4,1.9-6.3C463.5,943.3,463.6,943.1,463.9,943z M449.7,940
			c-0.1-1.5-0.6-2.3-1.6-2.3c-0.7,0-1.4,0.5-2.3,1.4c-1,1.1-1.8,2.5-2.5,4.3c-0.6,1.8-0.9,3.8-0.8,6c0.1,0.7,0.2,1.3,0.4,1.9
			s0.4,0.9,0.6,1.1c0.2,0.2,0.4,0.3,0.5,0.3c1,0,1.9-0.9,2.7-2.7c0.1-0.3,0.3-0.6,0.3-0.7c0.2-0.3,0.3-0.8,0.6-1.4
			c0.5-1.5,1.1-3.5,1.7-6.1c0,0,0-0.1,0-0.2c0-0.1,0-0.2,0-0.2C449.6,941.1,449.6,940.6,449.7,940z"/>
		<path class="st28" d="M485.5,943c0.4,0.5,0.4,0.9-0.1,1.3c-2.5,2.2-5.7,4.1-9.6,5.7c1.1,1.7,1.7,3.3,1.8,4.9v0.2v0
			c0,1.7-0.7,3.2-2.1,4.4c-1.3,1.2-2.9,1.7-4.7,1.8c-2.4,0-4.1-0.5-5.2-1.6c-0.8-0.8-1.2-1.9-1.2-3.3v0v-0.1c0-1.9,0.9-3.4,2.5-4.5
			c0.6-0.4,1.4-0.9,2.4-1.3c-0.2-0.2-0.5-0.5-1-0.9c-0.8-0.7-1.4-1.3-1.8-1.6c-0.4-0.4-0.9-0.9-1.4-1.5c-0.6-0.7-1-1.3-1.3-1.9
			c-0.6-1-1-2.1-1-3.2v-0.2v0c0-2.1,1-4,3-5.7c1.9-1.5,3.9-2.3,6.1-2.3c1.1,0,2,0.2,2.8,0.5c0.8,0.4,1.4,0.8,1.8,1.4
			c0.4,0.6,0.7,1.1,0.9,1.7c0.2,0.5,0.3,1.1,0.3,1.6v0v0.1v0l0,0c-0.1,0.3-0.2,0.5-0.5,0.7l0,0h0h0l-0.1,0l0,0h0h0h-0.1h-0.1h-0.1
			h-0.1c-0.1,0-0.1,0-0.2-0.1l0,0h0l0,0l0,0h0l0,0c0,0,0,0,0,0v0l-0.1-0.1l0,0c0,0,0,0,0,0c0,0,0,0,0,0v0l0,0v0l0,0c0,0,0-0.1,0-0.2
			v-0.1c0-0.3-0.1-0.5-0.1-0.8c-0.1-0.3-0.2-0.6-0.4-0.9c-0.2-0.4-0.5-0.7-1-0.9c-0.5-0.2-1-0.3-1.7-0.3c-1.2,0-2.2,0.5-3.1,1.4
			c-0.8,0.9-1.2,2-1.2,3.1c0,0.5,0.2,1.1,0.6,1.8c0.4,0.7,0.8,1.2,1.3,1.7c0.4,0.5,1.1,1.1,1.9,2c1,1,1.9,2,2.8,3.1
			c4-1.6,7.2-3.4,9.6-5.6c0.2-0.2,0.4-0.3,0.7-0.2C485.1,942.7,485.3,942.8,485.5,943z M469,959.2c0.7,0,1.4-0.3,2.2-1
			c0.8-0.6,1.2-1.6,1.2-2.9c0-0.9-0.6-2-1.8-3.3c-1.6,0.6-2.7,1.3-3.4,1.9c-0.7,0.6-1.1,1.5-1.1,2.6c0,0.9,0.3,1.6,0.9,2
			C467.6,958.9,468.2,959.2,469,959.2z"/>
		<path class="st28" d="M493.7,952L493.7,952c0,1.8-0.6,3.7-1.8,5.7c-1.2,2.1-2.4,3.2-3.4,3.2c-0.4,0-0.7-0.2-1-0.5
			c-0.2-0.4-0.1-1.1,0.3-1.9c0.8-1.6,1-2.8,0.5-3.5c-0.2-0.1-0.4-0.3-0.6-0.6c0,0,0-0.1,0-0.1c0,0-0.1-0.1-0.1-0.1
			c-0.3-0.5-0.5-1.2-0.5-1.9c0-1,0.3-1.8,1-2.5c0.7-0.7,1.5-1.1,2.4-1.1c0.9,0,1.6,0.3,2.2,0.9C493.3,950.2,493.6,951,493.7,952z"/>
		<path class="st27" d="M546.8,942.4c0.3,0.1,0.5,0.2,0.6,0.4c0.1,0.2,0.2,0.4,0.1,0.7c-0.5,2.8-1.4,5.4-2.5,8
			c-1.9,4.1-4,6.2-6.5,6.2c-1.9,0-3.4-0.7-4.5-2.1c-1.2-1.5-2-4-2.2-7.4c-1.7,4.8-3.7,7.3-6.1,7.3c-2.2,0-3.9-0.8-5.2-2.5
			c-0.9-1.1-1.5-2.6-2-4.4s-0.6-3.7-0.6-5.6c0-1.9,0.1-3.6,0.3-5.1c0.2-1.5,0.4-2.7,0.6-3.7c0.2-0.7,0.6-1.2,1.2-1.5
			c0.6-0.3,1.4-0.4,2.2-0.2c0.9,0.2,1.5,0.6,2,1.1c0.5,0.5,0.6,1.1,0.5,1.8c-0.6,2.7-0.9,5.7-0.9,9.1c0,4,0.5,6.7,1.5,7.9
			c0.3,0.4,0.6,0.6,0.9,0.5c1.2,0,2.8-2.9,4.7-8.6c0.5-1.8,0.9-3.9,1.4-6.2c0.1-0.2,0.1-0.4,0.1-0.7v0c0.2-1.1,0.4-2.4,0.8-4
			c0.2-0.7,0.6-1.2,1.2-1.5c0.6-0.3,1.4-0.4,2.2-0.2c0.9,0.2,1.5,0.6,2,1.1c0.5,0.6,0.6,1.2,0.5,1.8c-0.5,2.2-0.9,4.6-1.2,7.3
			c-0.3,2.7-0.5,5.4-0.4,8c0,2.6,0.4,4.2,1,5c0.2,0.2,0.4,0.3,0.6,0.3c0.7,0,1.5-0.5,2.4-1.6c0.9-1,1.6-2.4,2.3-4.2v0
			c0.9-2.2,1.5-4.3,1.8-6.3c0-0.3,0.2-0.5,0.4-0.6C546.3,942.4,546.5,942.3,546.8,942.4z"/>
		<path class="st27" d="M572.1,942.4c0.2-0.1,0.5-0.2,0.7-0.1c0.2,0.1,0.4,0.2,0.5,0.5c0.1,0.2,0.2,0.5,0.1,0.7
			c-1.6,5.6-3.1,9.6-4.4,11.9h0c-1,1.9-2,3.3-3,4.2c-1,0.9-1.9,1.4-2.9,1.4c-1.1,0-2-0.4-2.7-1.1c-0.6-0.6-1-1.4-1.3-2.5
			c-0.3-1-0.5-2.4-0.5-4.1c0-1.7,0-3.1,0.1-4.3c0.1-1.2,0.2-2.9,0.3-5.2c0.1-1.7,0.2-3.1,0.3-4c0.1-1,0.1-2.1,0.1-3.5
			c0-1.3-0.1-2.4-0.2-3.2c-0.2-0.8-0.4-1.4-0.7-1.7c-0.2-0.2-0.4-0.3-0.6-0.3c-0.1,0-0.2,0-0.3,0.1c-0.1,0.1-0.4,0.4-0.9,0.9
			c-0.4,0.6-0.9,1.3-1.4,2.3c-0.8,1.6-1.5,3.4-2.1,5.4v0.1c0,0.1-0.1,0.2-0.1,0.4c-0.1,0.2-0.1,0.3-0.1,0.4v0c0,0,0,0.1,0,0.1
			c-1.3,4.9-2,8.8-2,11.7c0,0.1,0,0.3,0,0.5c0,0.2,0.1,0.4,0.1,0.5c0,0.5-0.1,0.9-0.4,1.3c-0.3,0.4-0.7,0.6-1.2,0.7
			c-0.1,0-0.3,0-0.5,0c-0.7,0-1.3-0.2-1.9-0.5c-0.6-0.4-1-0.8-1.1-1.4c-0.7-2.7-1-6-1-9.8c0-2.6,0.1-5.3,0.4-8
			c0.1-0.8,0.5-1.5,1.2-2c0.7-0.5,1.5-0.7,2.3-0.6c0.7,0,1.3,0.3,1.8,0.9c0.5,0.5,0.7,1.3,0.6,2.2v0.2c-0.2,2.3-0.3,4-0.4,5.3
			c0-0.1,0.1-0.3,0.2-0.6c0.1-0.3,0.1-0.5,0.2-0.6v0c0.1-0.3,0.2-0.6,0.3-1c0.1-0.1,0.1-0.3,0.2-0.6c0.1-0.3,0.1-0.5,0.2-0.6
			c2.2-7.1,4.9-10.7,8-10.7c1.2,0,2.2,0.4,3,1.3c0.6,0.6,1,1.5,1.4,2.6c0.4,1.1,0.6,2.2,0.7,3.3c0.1,1.1,0.2,2.6,0.1,4.4
			c0,1.8-0.1,3.3-0.1,4.4c-0.1,1.1-0.2,2.7-0.3,4.7c-0.2,2.8-0.3,4.9-0.3,6.4c0,1.5,0.1,2.5,0.3,2.9c0.9-0.1,1.8-1.1,2.9-2.9
			c0.5-0.9,1-2,1.6-3.3h0c0.8-2.1,1.7-4.8,2.7-8.2C571.7,942.7,571.9,942.5,572.1,942.4z"/>
		<path class="st27" d="M613.9,942.3c0.4,0.5,0.4,0.9-0.1,1.3c-2.5,2.2-5.7,4.1-9.6,5.7c1.1,1.7,1.7,3.3,1.7,4.9v0.2v0
			c0,1.7-0.7,3.2-2.1,4.4c-1.3,1.2-2.9,1.7-4.7,1.8c-2.4,0-4.1-0.5-5.2-1.6c-0.8-0.8-1.2-1.9-1.2-3.3v0v-0.1c0-1.9,0.9-3.4,2.5-4.5
			c0.6-0.4,1.4-0.9,2.4-1.3c-0.2-0.2-0.5-0.5-1-0.9c-0.8-0.7-1.4-1.3-1.7-1.6c-0.4-0.4-0.9-0.9-1.4-1.5c-0.6-0.7-1-1.3-1.3-1.9
			c-0.6-1-1-2-1-3.2v-0.2v0c0-2.1,1-4,3-5.7c1.9-1.6,3.9-2.3,6.1-2.3c1.1,0,2,0.2,2.8,0.5c0.8,0.4,1.4,0.8,1.8,1.4
			c0.4,0.6,0.7,1.1,0.9,1.7c0.2,0.6,0.3,1.1,0.3,1.6v0v0.1v0l0,0c-0.1,0.3-0.2,0.5-0.5,0.7l0,0h0h0l-0.1,0h0h0h0H605h-0.1h-0.1h-0.1
			c-0.1,0-0.1,0-0.2-0.1l0,0h0l0,0l0,0h0l0,0c0,0,0,0,0,0v0l-0.1-0.1l0,0c0,0,0,0,0,0s0,0,0,0v0l0,0v0l0,0c0,0,0-0.1,0-0.2v-0.1
			c0-0.3-0.1-0.5-0.1-0.8c-0.1-0.3-0.2-0.6-0.4-0.9c-0.2-0.4-0.5-0.7-1-0.9s-1-0.3-1.7-0.3c-1.2,0-2.2,0.5-3.1,1.4
			c-0.8,0.9-1.2,2-1.2,3.1c0,0.5,0.2,1.1,0.6,1.8c0.4,0.7,0.8,1.2,1.3,1.7c0.4,0.5,1.1,1.1,1.9,2c1,1,1.9,2,2.8,3.1
			c4-1.6,7.1-3.4,9.5-5.6c0.2-0.2,0.4-0.3,0.7-0.2C613.5,942,613.8,942.1,613.9,942.3z M597.5,958.5c0.7,0,1.4-0.3,2.2-1
			c0.8-0.7,1.2-1.6,1.2-2.9c0-0.9-0.6-2-1.8-3.3c-1.6,0.6-2.7,1.3-3.4,1.9c-0.7,0.6-1.1,1.5-1.1,2.5c0,0.9,0.3,1.6,0.9,2
			C596,958.2,596.7,958.5,597.5,958.5z"/>
		<path class="st27" d="M640.1,942.3c0.3,0.5,0.3,0.9-0.2,1.3c-1.3,0.9-2.9,1.6-4.8,2.3c-2,0.7-4,1.2-5.9,1.4
			c-0.1,0.3-0.4,0.9-0.8,1.8c-1.8,3.8-4.3,5.7-7.4,5.7c-3.1,0-5.5-1.2-7.3-3.6c-1.4-1.9-2.1-3.9-2.1-6.2c0-2.4,0.5-4.8,1.4-7.2
			c-0.4-1-0.6-2.1-0.6-3.2c0-2,0.7-3.7,2-5.2c1.4-1.5,3.3-2.2,5.7-2.3c3.9,0,6.7,1.6,8.5,4.8c1.2,2.2,1.8,4.9,1.8,8.1
			c0,1.6-0.2,3.3-0.7,5.1c3.8-0.6,6.9-1.7,9.1-3.3C639.3,941.7,639.8,941.8,640.1,942.3z M627.7,945.6c0.5-1.9,0.8-3.6,0.8-5.3
			c0-3-0.5-5.4-1.6-7.3c-1.4-2.5-3.7-3.8-6.9-3.8c-1.9,0-3.3,0.6-4.4,1.7c-1,1.1-1.5,2.4-1.5,3.9c0,0.3,0,0.4,0,0.6
			c0.4-0.6,0.8-1.3,1.3-1.9c0.4-0.5,1.1-0.7,2.2-0.7c1,0.1,1.8,0.3,2.4,0.7c1,0.7,1.1,1.5,0.5,2.5c-1,1.6-1.9,3.7-2.5,6.2
			c2.5,2.3,5.3,3.5,8.6,3.4C627.1,945.6,627.5,945.6,627.7,945.6z M621.3,952.6c2.3,0,4.2-1.7,5.7-5.2h-0.4c-3.3,0-6.3-1.1-9-3.2
			c-0.1,0.6-0.1,1.1-0.1,1.7c0,1.8,0.4,3.3,1,4.7C619.3,952,620.2,952.7,621.3,952.6z M621.4,924.7c-0.6-0.4-0.8-1.6-0.6-3.7
			c0.2-1.7,0.5-3.5,0.9-5.4c0.2-0.8,0.5-1.5,1.2-2.1c0.6-0.6,1.4-0.9,2.2-0.9c0.9,0,1.7,0.3,2.3,0.9c0.6,0.6,0.9,1.4,0.9,2.4
			c0,0.4-0.1,0.9-0.3,1.4c0,0,0,0,0,0s0,0,0,0c-0.6,1.4-1.6,2.9-2.8,4.6c-1.3,1.6-2.2,2.6-2.9,2.8c-0.2,0-0.3,0.1-0.4,0.1
			C621.7,924.8,621.5,924.8,621.4,924.7z"/>
		<path class="st27" d="M657.1,912.5l0,0.2v0.5v0c0,1.8-0.5,3.7-1.5,5.8c-1,2.1-2.2,4.1-3.6,6c-1.5,1.9-2.8,3.6-4.1,5
			c-1.3,1.4-2.5,2.6-3.7,3.7c-0.5,3.9-0.8,7.5-0.8,11c0,5.2,0.3,8.9,0.8,11.1c0.4,1.6,0.9,2.4,1.5,2.4c0.7,0,1.6-0.9,2.8-2.6
			c0.8-1.1,1.6-2.6,2.4-4.4c0,0,0.1-0.1,0.1-0.1c0,0,0-0.1,0.1-0.1c1.4-3,2.6-5.9,3.4-8.5c0.1-0.2,0.3-0.4,0.5-0.6
			c0.2-0.1,0.5-0.1,0.7,0c0.2,0.1,0.4,0.3,0.5,0.5c0.1,0.2,0.1,0.4,0.1,0.7c-1,3.2-2.4,6.5-4.1,9.9c0,0.1-0.1,0.1-0.1,0.2
			c0,0.1-0.1,0.1-0.1,0.2c-2.5,4.8-4.7,7.2-6.8,7.2c-0.7,0-1.3-0.1-1.9-0.3c-0.6-0.2-1.3-0.7-2-1.4c-0.7-0.7-1.4-1.7-1.9-2.9
			c-0.5-1.2-1-2.9-1.3-5.1c-0.4-2.2-0.6-4.7-0.6-7.5c-0.1-9.9,1.5-18.5,4.7-25.9c1.5-3.5,3.2-6.2,5.1-8.1c1.9-1.9,3.8-2.9,5.8-2.9
			c0.8,0,1.6,0.3,2.2,1C656.5,908.4,657.1,910.1,657.1,912.5L657.1,912.5z M655.3,913.1l0-0.6v-0.3c-0.1-1.1-0.3-1.9-0.7-2.4
			c-0.2-0.2-0.4-0.3-0.7-0.3c-0.3,0-0.8,0.3-1.4,0.9c-0.6,0.6-1.3,1.7-2.2,3.3c-0.9,1.6-1.8,3.6-2.6,6c-1.3,3.7-2.2,7.3-2.9,10.8
			c1.5-1.5,3.1-3.3,4.6-5.3C653.3,920.4,655.2,916.3,655.3,913.1z"/>
		<path class="st27" d="M682.1,942c0.2,0.2,0.2,0.5,0.2,0.7c0,0.3-0.2,0.5-0.4,0.6c-1.2,0.9-2.9,1.6-4.8,2.3c-2,0.7-3.9,1.1-5.9,1.4
			c-0.2,0.6-0.5,1.2-0.8,1.9c-1.8,3.8-4.3,5.7-7.4,5.7c-3.1,0-5.6-1.2-7.3-3.6c-1.4-1.8-2.1-3.9-2.1-6.2c0-2.4,0.5-4.8,1.4-7.2
			c-0.4-1-0.6-2.1-0.6-3.1c0-2,0.7-3.7,2-5.2c1.4-1.5,3.3-2.2,5.7-2.2c3.9,0,6.8,1.6,8.5,4.7c1.2,2.2,1.8,4.9,1.8,8.1
			c0,1.6-0.2,3.3-0.7,5.1c1.7-0.3,3.4-0.7,5.1-1.3c1.7-0.6,3-1.2,4-2C681.4,941.5,681.8,941.6,682.1,942z M669.8,945.3
			c0.5-1.9,0.8-3.7,0.8-5.4c0-2.9-0.5-5.3-1.6-7.2c-1.4-2.6-3.7-3.8-6.9-3.8c-1.9,0-3.3,0.6-4.4,1.7c-1,1.1-1.5,2.4-1.5,3.9
			c0,0.3,0,0.4,0,0.6c0.4-0.7,0.9-1.4,1.3-2c0.4-0.5,1.1-0.7,2.2-0.6c1.1,0.1,1.9,0.3,2.3,0.6c0.5,0.3,0.7,0.7,0.8,1.2
			c0.1,0.5,0,0.9-0.3,1.4c-1.1,1.7-1.9,3.7-2.5,6.2c2.5,2.3,5.3,3.5,8.6,3.4L669.8,945.3z M663.4,952.4c2.3,0,4.2-1.8,5.7-5.2
			l-0.4,0c-3.3,0-6.3-1.1-9-3.2c-0.1,0.6-0.1,1.1-0.1,1.6c0,1.8,0.4,3.3,1,4.7C661.3,951.7,662.2,952.4,663.4,952.4z"/>
		<path class="st28" d="M731.1,941.7c0.4,0.5,0.4,0.9-0.1,1.3c-2.1,1.9-5.2,3.3-9.2,4.3c-0.5,2.5-1.5,4.6-3.1,6.4
			c-2.2,2.5-4.9,3.7-8.1,3.8h-0.2c-1.2,0-2.2-0.4-3-1.1c-0.8-0.7-1.1-1.7-1.1-2.9c0-2.3,1.1-4.1,3.5-5.2c1.2-0.6,3.2-1.1,5.9-1.6
			c0.1-1.2,0.2-2.2,0.2-3.2c0-2.4-0.3-4.7-0.9-6.7c-0.6-2-1.2-3-2-3c-1,0-2.1,1-3.3,2.9c-1.2,1.9-2.1,3.8-2.7,5.8v0
			c0,0.1-0.1,0.2-0.1,0.3l0,0c-1,3.3-1.8,7.3-2.3,12c-0.6,8.7-0.5,16.5,0.5,23.5c0.1,0.5,0,1-0.3,1.3c-0.3,0.4-0.7,0.6-1.3,0.7
			c-0.1,0-0.3,0-0.5,0c-0.7,0-1.3-0.2-2-0.5c-0.6-0.4-1-0.9-1.1-1.5c-2-11.6-1.8-25,0.9-40.1c0.2-0.9,0.3-1.5,0.3-1.9
			c0.1-0.8,0.5-1.5,1.2-2c0.7-0.5,1.5-0.7,2.3-0.6c0.7,0,1.3,0.3,1.8,0.9c0.5,0.5,0.7,1.3,0.6,2.2c0,0,0,0.1,0,0.1c0,0,0,0.1,0,0.2
			c0,0.1,0,0.2,0,0.3c0,0.1,0,0.1,0,0.2c0,0.1,0,0.1,0,0.1c2-4.2,4.5-6.3,7.5-6.3c2.3,0,4.2,1.3,5.7,3.8c1.4,2.3,2.1,5.2,2.1,8.6
			c0,0.4,0,0.9-0.1,1.6c3.3-0.8,5.9-2.1,7.7-3.7c0.2-0.2,0.4-0.2,0.7-0.2C730.7,941.4,730.9,941.5,731.1,941.7z M714.1,952.4
			c0.6-1.2,1-2.4,1.3-3.9c-2.6,0.5-4.4,1.1-5.5,1.8c-1.1,0.7-1.7,1.7-1.7,3.1c0,0.7,0.2,1.2,0.6,1.6c0.4,0.4,0.9,0.6,1.6,0.6
			C711.8,955.6,713,954.5,714.1,952.4z"/>
		<path class="st28" d="M755.8,941.4c0.2-0.1,0.5-0.2,0.7-0.1c0.2,0.1,0.4,0.2,0.6,0.4c0.1,0.2,0.2,0.4,0.1,0.7
			c-0.5,2.8-1.4,5.4-2.5,8c-1.9,4.1-4,6.2-6.5,6.2c-2,0-3.5-0.7-4.6-2.2c-1.2-1.5-2-3.9-2.2-7v0.1c-0.3,0.7-0.5,1.3-0.7,1.6v0.1
			c-1.6,3.4-3.5,5.2-5.7,5.2c-1.6,0-3-0.7-4.2-2c-1.2-1.4-1.9-3.5-2.1-6.3c-0.2-4,0.9-7.3,3.4-10c1.9-2,3.9-3,6.2-3
			c1.7,0,3,0.5,4,1.5c0.1-0.9,0.2-1.3,0.3-1.5c0.2-0.7,0.6-1.2,1.2-1.5c0.6-0.3,1.4-0.4,2.2-0.2c0.9,0.2,1.5,0.6,2,1.1
			c0.5,0.6,0.6,1.1,0.5,1.8c-0.5,2-0.8,4.3-1.1,7c-0.3,2.6-0.4,5.2-0.3,7.7c0.1,2.5,0.4,4.1,1.1,4.9c0.2,0.2,0.4,0.4,0.6,0.4
			c0.7,0,1.5-0.5,2.4-1.6c0.9-1.1,1.6-2.5,2.3-4.2v0c0.9-2.3,1.5-4.4,1.9-6.3C755.4,941.7,755.6,941.5,755.8,941.4z M741.7,938.5
			c-0.1-1.5-0.6-2.3-1.6-2.3c-0.7,0-1.4,0.5-2.3,1.4c-1,1.1-1.8,2.5-2.5,4.3c-0.6,1.8-0.9,3.8-0.8,6c0.1,0.7,0.2,1.3,0.4,1.9
			c0.2,0.5,0.4,0.9,0.6,1.1c0.2,0.2,0.4,0.3,0.5,0.3c1,0,1.9-0.9,2.7-2.7c0.1-0.3,0.3-0.6,0.3-0.7c0.2-0.3,0.3-0.8,0.6-1.4
			c0.5-1.5,1.1-3.5,1.7-6.1c0,0,0-0.1,0-0.2c0-0.1,0-0.2,0-0.2C741.5,939.5,741.6,939.1,741.7,938.5z"/>
		<path class="st28" d="M774.3,942.2L774.3,942.2c0,0.2,0,0.3,0,0.3v0c0,0,0,0.1,0,0.1v0l0,0v0h0l0,0v0v0l0,0L774,943v0
			c-0.1,0-0.1,0-0.1,0l-0.1,0c0,0,0,0,0,0c0,0,0,0,0,0c0,0,0,0,0,0h-0.1h0l0,0h-0.1l-0.1,0h0c-0.1,0-0.2,0-0.2,0
			c-0.9-0.3-1.7-0.7-2.4-1.2c-0.7-0.5-1.2-1-1.6-1.6c-0.4-0.5-0.7-1.2-1-2c-0.3-0.8-0.5-1.5-0.6-1.9c-0.1-0.5-0.2-1.1-0.3-1.8
			c-0.2-1.1-0.3-1.7-0.4-1.8c-0.9,0.3-1.9,1.6-3,4.2l0,0c-0.3,0.7-0.5,1.4-0.8,2.1c-0.7,2.1-1.2,4.3-1.6,6.6s-0.6,4.2-0.6,5.7
			c0,0.1,0,0.3,0,0.5c0,0.2,0.1,0.4,0.1,0.5c0,0.5-0.1,0.9-0.4,1.3c-0.3,0.4-0.7,0.6-1.2,0.7c-0.1,0-0.3,0-0.5,0
			c-0.7,0-1.3-0.2-1.9-0.5c-0.6-0.4-1-0.8-1.1-1.4c-0.7-2.7-1-6-1-9.8c0-2.6,0.1-5.3,0.4-8c0.1-0.8,0.5-1.5,1.2-2s1.5-0.7,2.3-0.7
			c0.7,0.1,1.3,0.3,1.8,0.9c0.5,0.5,0.7,1.3,0.6,2.3v0.2c-0.2,2.4-0.3,4.1-0.4,5.3c0.1-0.5,0.2-0.9,0.4-1.3v0c0.2-0.9,0.6-1.9,1-2.9
			c1.9-4.7,4.2-7,6.8-7c1.7,0,2.8,0.7,3.4,2.1c0.3,0.7,0.5,2.1,0.7,4.2c0.2,2.9,0.7,5,1.3,6.2v0l0,0l0,0.1v0v0c0,0,0,0,0,0V942.2z"
			/>
		<path class="st28" d="M803.7,941.2c0.2-0.1,0.5-0.2,0.7-0.1c0.2,0.1,0.4,0.2,0.6,0.4c0.1,0.2,0.2,0.4,0.1,0.7
			c-0.5,2.8-1.4,5.5-2.5,8c-1.9,4.1-4,6.2-6.5,6.2c-2,0-3.5-0.7-4.6-2.2c-1.2-1.5-2-3.9-2.2-7v0.1c-0.3,0.7-0.5,1.3-0.7,1.6v0.1
			c-1.6,3.4-3.5,5.2-5.7,5.2c-1.6,0-3-0.7-4.2-2c-1.2-1.4-1.9-3.5-2.1-6.3c-0.2-4,0.9-7.3,3.4-10c1.9-2,3.9-3,6.2-3
			c1.7,0,3,0.5,4,1.5c0.1-0.9,0.2-1.3,0.3-1.5c0.2-0.7,0.6-1.2,1.2-1.5c0.6-0.3,1.4-0.3,2.2-0.2c0.9,0.2,1.5,0.6,2,1.1
			c0.5,0.5,0.6,1.1,0.5,1.8c-0.5,2-0.8,4.3-1.1,7c-0.3,2.6-0.4,5.2-0.3,7.7c0.1,2.5,0.4,4.1,1.1,4.9c0.2,0.2,0.4,0.4,0.6,0.4
			c0.7,0,1.5-0.5,2.4-1.6c0.9-1.1,1.6-2.5,2.3-4.2v0c0.9-2.3,1.5-4.4,1.9-6.3C803.3,941.5,803.4,941.3,803.7,941.2z M789.5,938.2
			c-0.1-1.5-0.6-2.3-1.6-2.3c-0.7,0-1.4,0.5-2.3,1.4c-1,1.1-1.8,2.5-2.5,4.3c-0.6,1.8-0.9,3.8-0.8,6c0.1,0.7,0.2,1.3,0.4,1.9
			c0.2,0.5,0.4,0.9,0.6,1.1c0.2,0.2,0.4,0.3,0.5,0.3c1,0,1.9-0.9,2.7-2.7c0.1-0.3,0.3-0.6,0.3-0.7c0.2-0.3,0.3-0.8,0.6-1.4
			c0.5-1.5,1.1-3.5,1.7-6.1c0,0,0-0.1,0-0.2c0-0.1,0-0.2,0-0.2C789.4,939.3,789.4,938.8,789.5,938.2z"/>
		<path class="st28" d="M817.7,941c0.2,0.1,0.4,0.2,0.6,0.4c0.1,0.2,0.2,0.4,0.1,0.7c-0.2,1.3-0.7,2.9-1.4,4.7c0,0,0,0.1,0,0.1
			c0,0,0,0.1-0.1,0.1s-0.1,0.1-0.1,0.2c-1.9,4.4-4.3,6.7-7.2,6.7c-2.1,0-3.8-0.7-4.9-2.3c-1.6-2.1-2.3-5.4-2.1-10.1
			c0.2-2.8,0.6-5.7,1.3-8.9c0.2-0.7,0.6-1.2,1.2-1.5c0.6-0.3,1.4-0.3,2.2-0.2c0.9,0.2,1.5,0.5,2,1.1c0.5,0.5,0.6,1.1,0.5,1.8
			c-0.5,2-0.8,4.2-1.1,6.4c-0.3,2.3-0.4,4.5-0.3,6.6c0.1,2.1,0.4,3.5,1,4.2c0.2,0.3,0.5,0.4,0.8,0.4c0.9,0,1.8-0.5,2.7-1.4
			c0.9-1,1.7-2.3,2.4-3.9c0.6-1.5,1.1-3,1.4-4.5c0.1-0.2,0.2-0.4,0.4-0.6C817.1,941,817.4,940.9,817.7,941z M807.2,928.1
			c-0.6-0.4-0.8-1.6-0.6-3.7c0.2-1.7,0.5-3.5,0.9-5.4c0.1-0.8,0.5-1.5,1.2-2.1c0.7-0.6,1.4-0.9,2.3-0.9c0.9,0,1.7,0.3,2.2,0.9
			c0.6,0.6,0.9,1.4,0.9,2.4c0,0.4-0.1,0.9-0.3,1.4v0.1c-0.6,1.4-1.6,2.9-2.8,4.6c-1.3,1.7-2.2,2.6-2.9,2.8c-0.1,0-0.2,0-0.4,0
			C807.5,928.3,807.3,928.2,807.2,928.1z"/>
		<path class="st28" d="M838.5,941.1c0.4,0.5,0.4,0.9-0.1,1.3c-2.5,2.2-5.7,4.1-9.6,5.7c1.1,1.7,1.7,3.3,1.8,4.9v0.2v0
			c0,1.7-0.7,3.2-2.1,4.4c-1.3,1.2-2.9,1.7-4.7,1.8c-2.4,0-4.1-0.5-5.2-1.6c-0.8-0.8-1.2-1.9-1.2-3.3v0v-0.1c0-1.9,0.9-3.4,2.5-4.5
			c0.6-0.4,1.4-0.9,2.4-1.3c-0.2-0.2-0.5-0.5-1-0.9c-0.8-0.7-1.4-1.3-1.8-1.6c-0.4-0.4-0.9-0.9-1.4-1.5c-0.6-0.7-1-1.3-1.3-1.9
			c-0.6-1-1-2-1-3.2v-0.2v0c0-2.1,1-4,3-5.7c1.9-1.6,3.9-2.3,6.1-2.4c1.1,0,2,0.2,2.8,0.5c0.8,0.4,1.4,0.8,1.8,1.4
			c0.4,0.6,0.7,1.1,0.9,1.7c0.2,0.6,0.3,1.1,0.3,1.6v0v0.1v0l0,0c-0.1,0.3-0.2,0.5-0.5,0.7l0,0h0h0l-0.1,0h0h0h0h-0.1h-0.1h-0.1
			h-0.1c-0.1,0-0.1,0-0.2-0.1l0,0h0l0,0l0,0h0l0,0c0,0,0,0,0,0v0l-0.1-0.1l0,0c0,0,0,0,0,0s0,0,0,0v0l0,0v0l0,0c0,0,0-0.1,0-0.2
			v-0.1c0-0.3-0.1-0.5-0.1-0.8c-0.1-0.3-0.2-0.6-0.4-0.9c-0.2-0.4-0.5-0.7-1-0.9c-0.5-0.2-1-0.3-1.7-0.3c-1.2,0-2.2,0.5-3.1,1.4
			c-0.8,0.9-1.2,2-1.2,3.1c0,0.5,0.2,1.1,0.6,1.8c0.4,0.7,0.8,1.2,1.3,1.7c0.4,0.5,1.1,1.1,1.9,2c1,1,1.9,2,2.8,3.1
			c4-1.6,7.2-3.4,9.6-5.6c0.2-0.2,0.4-0.3,0.7-0.2C838.2,940.8,838.4,940.9,838.5,941.1z M822.1,957.3c0.7,0,1.4-0.3,2.2-1
			c0.8-0.7,1.2-1.6,1.2-2.9c0-0.9-0.6-2-1.8-3.3c-1.6,0.6-2.7,1.3-3.4,1.9c-0.7,0.6-1.1,1.5-1.1,2.5c0,0.9,0.3,1.6,0.9,2
			C820.6,957,821.3,957.3,822.1,957.3z"/>
		<path class="st28" d="M864.8,941.1c0.2,0.2,0.2,0.5,0.2,0.7c0,0.3-0.2,0.5-0.4,0.6c-1.2,0.9-2.9,1.6-4.8,2.3
			c-2,0.7-3.9,1.1-5.9,1.4c-0.2,0.6-0.5,1.2-0.8,1.9c-1.8,3.8-4.3,5.7-7.4,5.7c-3.1,0-5.6-1.2-7.3-3.6c-1.4-1.8-2.1-3.9-2.1-6.2
			c0-2.4,0.5-4.8,1.4-7.2c-0.4-1-0.6-2.1-0.6-3.1c0-2,0.7-3.7,2-5.2c1.4-1.5,3.3-2.2,5.7-2.2c3.9,0,6.8,1.6,8.5,4.7
			c1.2,2.2,1.8,4.9,1.8,8.1c0,1.6-0.2,3.3-0.7,5.1c1.7-0.3,3.4-0.7,5.1-1.3c1.7-0.6,3-1.2,4-2C864,940.5,864.4,940.6,864.8,941.1z
			 M852.4,944.4c0.5-1.9,0.8-3.7,0.8-5.4c0-2.9-0.5-5.3-1.6-7.2c-1.4-2.6-3.7-3.8-6.9-3.8c-1.9,0-3.3,0.6-4.4,1.7
			c-1,1.1-1.5,2.4-1.5,3.9c0,0.3,0,0.4,0,0.6c0.4-0.7,0.9-1.4,1.3-2c0.4-0.5,1.1-0.7,2.2-0.6c1.1,0.1,1.9,0.3,2.3,0.6
			c0.5,0.3,0.7,0.7,0.8,1.2c0.1,0.5,0,0.9-0.3,1.4c-1.1,1.7-1.9,3.7-2.5,6.2c2.5,2.3,5.3,3.5,8.6,3.4L852.4,944.4z M846,951.4
			c2.3,0,4.2-1.8,5.7-5.2l-0.4,0c-3.3,0-6.3-1.1-9-3.2c-0.1,0.6-0.1,1.1-0.1,1.6c0,1.8,0.4,3.3,1,4.7
			C843.9,950.8,844.8,951.4,846,951.4z"/>
	</g>
</g>
<text transform="matrix(1.0337 0 0 1 109.7696 888.6445)" class="st29 st30">SILVIA</text>
</svg>
