<?xml version="1.0" encoding="utf-8"?>
<!-- Generator: Adobe Illustrator 25.0.0, SVG Export Plug-In . SVG Version: 6.00 Build 0)  -->
<svg version="1.1" id="Capa_1" xmlns="http://www.w3.org/2000/svg" xmlns:xlink="http://www.w3.org/1999/xlink" x="0px" y="0px"
	 viewBox="0 0 512 512" style="enable-background:new 0 0 512 512;" xml:space="preserve">
<g id="Calendario">
	<path d="M23.9,190.8c154.8,0,309.1,0,463.8,0c0.1,1,0.2,1.9,0.2,2.9c0,32.5,0,65,0,97.6c0,41.6,0,83.3,0,124.9
		c0,14.4,0,28.9,0,43.3c0,16.4-12.2,28.5-28.6,28.5c-55.6,0-111.2,0-166.7,0c-64.9,0-129.9,0-194.8,0c-15,0-30,0-44.9,0
		c-16.9,0-28.9-12.1-28.9-29c0-51.7,0-103.5,0-155.2c0-25.6,0-51.2,0-76.8c0-11.1,0-22.1,0-33.2C23.9,192.9,23.9,192,23.9,190.8z
		 M60.4,239.3c0,0.9-0.1,1.5-0.1,2.1c0,8.6,0,17.1,0,25.7c0,55.8,0,111.5,0,167.3c0,3.4,0.4,6.7,2.2,9.8
		c4.9,8.2,12.4,11.7,21.7,11.7c58.9,0,117.8,0,176.6,0c55.1,0,110.1,0,165.2,0c1.7,0,3.4,0.1,5.1-0.2c7.4-1,13.4-4.2,17.6-10.6
		c2.5-3.9,2.8-8.1,2.8-12.5c0-63.4,0-126.9,0-190.3c0-0.9-0.1-1.7-0.1-2.9C321.1,239.3,190.9,239.3,60.4,239.3z"/>
	<path d="M24.1,168.6c-0.1-0.8-0.2-1.5-0.2-2.2c0-21-0.1-41.9,0-62.9c0.1-10.1,4.6-17.9,13-23.4c4.3-2.8,9.2-4.3,14.3-4.3
		c15.9-0.1,31.7,0,47.6,0c0.3,0,0.5,0.1,1.1,0.2c0.1,0.9,0.1,1.8,0.2,2.7c0.2,6.9-0.3,14,0.9,20.8c2.5,14,11.5,22.7,25.2,25.8
		c19.9,4.6,39.4-11.1,39.6-31.7c0.1-5.9,0-11.7,0-17.8c60,0,119.8,0,179.9,0c0,1.1,0,2.2,0,3.3c0.2,6.6-0.3,13.3,0.7,19.7
		c3.7,24,32.4,35.2,51.7,20.6c8.9-6.8,13.2-15.8,13.3-26.9c0.1-5.5,0-11,0-16.7c1.1-0.1,1.9-0.2,2.6-0.2c15.2,0,30.5-0.1,45.7,0
		c9.1,0.1,16.5,3.8,22.1,11c4.1,5.2,5.9,11.2,5.9,17.9c-0.1,20.3,0,40.5,0,60.8c0,1,0,2.1,0,3.3C333.2,168.6,178.7,168.6,24.1,168.6
		z"/>
	<path d="M401.6,70.4c0,8.3,0.3,16.6-0.1,24.9c-0.6,14-15.5,24.2-28.9,20.2c-10.6-3.2-17.1-11.8-17.1-22.8c0-15.1,0-30.1,0-45.2
		c0-9.9,5.6-18.3,14.4-21.7c9.4-3.7,19-1.6,25.8,6c3.7,4.1,5.8,8.9,5.8,14.5C401.7,54.3,401.7,62.3,401.6,70.4
		C401.7,70.4,401.7,70.4,401.6,70.4z"/>
	<path d="M110.1,69.6c0-7.5,0-15,0-22.5c0.1-10,5.9-18.3,15.2-21.8c8.6-3.2,19-0.7,25.3,6.6c3.6,4.1,5.6,9,5.6,14.6
		c0,15.7,0.1,31.4,0,47.1c-0.1,11.9-9.4,21.5-21.2,22.5c-11.4,1-22.2-7.1-24.5-18.3c-0.3-1.6-0.4-3.2-0.4-4.8
		C110,85.3,110,77.4,110.1,69.6L110.1,69.6z"/>
	<path d="M270.8,299.4c0-6.5,0-13,0-19.5c0-7.2,5.3-12.6,12.4-12.6c13.1-0.1,26.2-0.1,39.3,0c7.3,0,12.5,5.3,12.5,12.5
		c0.1,12.9,0.1,25.9,0,38.8c0,7.7-5.2,12.9-12.9,12.9c-12.7,0-25.5,0-38.2,0c-7.9,0-13-5.1-13-13.1
		C270.8,312.1,270.8,305.7,270.8,299.4L270.8,299.4z"/>
	<path d="M208.9,267.2c6.3,0,12.7,0,19,0c7.9,0,13.1,5.1,13.1,13c0,12.7,0,25.3,0,38c0,8.1-5.1,13.2-13.1,13.3
		c-12.7,0-25.5,0-38.2,0c-7.5,0-12.8-5.2-12.9-12.8c-0.1-12.9-0.1-25.9,0-38.8c0-7.4,5.2-12.6,12.6-12.7c0.2,0,0.4,0,0.5,0
		C196.2,267.3,202.6,267.3,208.9,267.2z"/>
	<path d="M147.4,391.6c0,6.4,0,12.8,0,19.3c-0.1,7.7-5.1,12.8-12.7,12.8c-13,0-26,0-39.1,0c-7.1,0-12.4-5.2-12.5-12.3
		c-0.1-13.2-0.1-26.4,0-39.6c0.1-6.9,5.4-12.2,12.2-12.3c13.1-0.1,26.2-0.1,39.3,0c8.4,0.1,13.1,6.9,12.8,13.2
		C147.1,378.9,147.4,385.3,147.4,391.6L147.4,391.6z"/>
	<path d="M241,391.7c0,6.3,0,12.7,0,19c0,7.9-5.2,13-13.1,12.9c-12.6,0-25.3,0-37.9,0c-8.2,0-13.2-5-13.2-13.2c0-12.7,0-25.5,0-38.2
		c0-7.1,5.2-12.7,12.3-12.7c13.2-0.1,26.4-0.1,39.6,0c7.3,0.1,12.2,5.4,12.3,12.7C241,378.7,241,385.2,241,391.7L241,391.7z"/>
	<path d="M270.8,391.4c0-6.3,0-12.7,0-19c0.1-7.9,5.2-13,13.1-13c12.5,0,25,0,37.4,0c8.6,0,13.5,4.8,13.6,13.3
		c0.1,12.6,0.1,25.1,0,37.7c0,8.3-5.1,13.2-13.5,13.2c-12.6,0-25.1,0-37.7,0c-8,0-13.1-5.2-13.1-13.2
		C270.8,404.1,270.8,397.7,270.8,391.4L270.8,391.4z"/>
	<path d="M364.4,299.1c0-6.5,0-13,0-19.5c0.1-6.9,5.2-12.3,12.1-12.3c13.4-0.1,26.8-0.1,40.1,0c6.8,0,12,5.4,12,12.5
		c0.1,12.9,0.1,25.8,0,38.8c-0.1,8-5.3,12.9-13.2,12.9c-12.7,0-25.5,0.1-38.2,0c-7.5,0-12.7-5.2-12.8-12.8
		C364.3,312.2,364.4,305.6,364.4,299.1C364.4,299.1,364.4,299.1,364.4,299.1z"/>
	<path d="M147.4,299.4c0,6.4,0,12.8,0,19.3c0,7.5-5.2,12.8-12.7,12.8c-13,0.1-26,0.1-39.1,0c-7,0-12.4-5.3-12.5-12.3
		c-0.1-13.2-0.1-26.4,0-39.6c0.1-7,5.3-12.2,12.2-12.3c13.3-0.1,26.6-0.1,39.9,0c6.9,0,12.1,5.4,12.1,12.3
		C147.4,286.2,147.4,292.8,147.4,299.4z"/>
</g>
</svg>
