<?xml version="1.0" encoding="utf-8"?>
<!-- Generator: Adobe Illustrator 25.0.0, SVG Export Plug-In . SVG Version: 6.00 Build 0)  -->
<svg version="1.1" id="Capa_1" xmlns="http://www.w3.org/2000/svg" xmlns:xlink="http://www.w3.org/1999/xlink" x="0px" y="0px"
	 viewBox="0 0 512 512" style="enable-background:new 0 0 512 512;" xml:space="preserve">
<g id="DeInteres">
	<path d="M391.5,282.5c30.8,42.6,61.6,85,92.5,127.8c-48.6,0-96.9,0-145.5,0c0-0.8,0-1.7,0-2.6c0-19.8,0-39.7,0-59.5
		c0-12.2-8.7-20.8-20.9-20.8c-23.5,0-46.9,0-70.4,0c-0.8,0-1.5,0-2.5,0c-0.6-5.2-1.2-10.3-1.8-15.4c-0.1-0.7-0.1-1.4-0.2-2.1
		c-0.5-2.7-1.8-3.9-4.5-3.9c-12.6,0-25.3,0-37.9,0c-3.6,0-7.3,0-10.9,0c-3.5,0-4.8,1.2-5.1,4.6c-0.5,5.2-1.2,10.4-1.7,15.6
		c0,0.3-0.2,0.7-0.3,1.1c-3.8,0-7.5,0-11.5,0c0-2,0-3.8,0-5.7c-0.1-3.6-1.5-5-5-5c-7.5,0-14.9,0-22.4,0c-3.2,0-4.7,1.6-4.7,4.8
		c0,1.9,0,3.8,0,5.8c-1.9,0.1-3.7,0.1-5.4,0.4c-10.3,1.8-17,9.9-17,20.5c0,19.5,0,39,0,58.4c0,1.2,0,2.4,0,3.7
		c-29.4,0-58.6,0-88.2,0c48.8-67.5,97.6-134.7,146.4-202.3c2.6,3.5,5,6.9,7.4,10.2c3.7,5.1,7.4,10.2,11.1,15.4
		c10.2,14.1,20.4,28.2,30.6,42.3c2.6,3.6,5.4,3.5,8,0c22.7-31.4,45.4-62.7,68.1-94.1c0.3-0.4,0.7-0.8,1.1-1.4
		c3.2,5.9,6.3,11.5,9.4,17.2c16.4,29.4,34.3,57.9,52.7,86.2c3.3,5.1,6.7,10.1,10,15.2c2.2,3.3,5.3,3.3,7.5,0
		c3.4-5,6.7-10.1,10.1-15.2C390.8,283.4,391.1,283,391.5,282.5z"/>
	<path d="M376.7,290.1c-2.5-3.8-4.9-7.4-7.2-11c-19.3-29.6-38-59.6-55.1-90.6c-8-14.5-16.1-29.1-21.4-44.8
		c-10-29.4-7.1-57.7,9.2-84.3c5.4-8.8,12.9-15.7,21.7-21.4c17.8-11.6,37.4-14.6,58-13.9c10.9,0.4,21.6,2.1,31.9,5.9
		c21.6,8,36.4,22.9,45.1,44c5.9,14.3,7.7,29.3,6.9,44.7c-0.7,13.4-5,25.8-10.6,37.8c-11.5,24.9-25.2,48.6-39.5,72
		c-10.4,17-21.2,33.8-31.9,50.6C381.6,282.8,379.2,286.3,376.7,290.1z M376.7,158.8c27.9,0.1,50.5-22.5,50.7-50.3
		c0.1-27.3-21.9-50.8-50.4-50.9c-27.2-0.2-50.8,21.8-50.9,50.5C325.9,136.1,348.6,158.7,376.7,158.8z"/>
	<path d="M227.5,488c-30.1,0-60.2,0-90.3,0c-6.4,0-10.9-3.2-12.5-9c-0.3-1.2-0.4-2.5-0.4-3.7c0-42.4,0-84.8,0-127.1
		c0-7.5,5-12.7,12.6-12.7c60.4,0,120.8,0,181.2,0c7.1,0,12.4,5.3,12.4,12.5c0,42.6,0,85.2,0,127.8c0,7.3-5.3,12.3-12.9,12.3
		C287.5,488,257.5,488,227.5,488z M158.3,411.7c-0.1,30.4,24.5,55.2,54.9,55.3c30.7,0.1,55.6-24.5,55.7-55
		c0.1-30.4-24.7-55.5-55-55.5C183.1,356.4,158.4,380.9,158.3,411.7z M298.1,351.1c-6.5,0-13,0-19.5,0c-3.7,0-5.1,1.4-5.1,5
		c0,6.4,0,12.7,0,19.1c0,4.2,1.3,5.4,5.5,5.4c12.6,0,25.3,0,37.9,0c4,0,5.5-1.4,5.5-5.4c0-6.3,0-12.6,0-18.8c0-3.8-1.5-5.3-5.3-5.3
		C310.8,351.1,304.5,351.1,298.1,351.1z"/>
	<path d="M193.8,169.3c-18-0.2-32.8-0.6-47.3-4c-7.3-1.7-14.4-4.3-21.2-7.4c-5.5-2.5-10.9-5.5-14.9-10.3c-3.9-4.7-4.7-9.9-1.9-14.9
		c1.5-2.6,3.7-4,6.7-4.3c3.9-0.4,7.6,0.7,11.2,2.2c3,1.3,5.8-0.1,6-3c0.1-1.1-0.4-2.3-1-3.3c-2-3.5-3.6-7.2-3.2-11.3
		c0.8-7.7,9.2-12.8,17.1-10.3c3.1,0.9,5.7,2.5,7.4,5.4c1.6,2.7,5.4,2.7,6.7,0c5.1-10.1,13.9-14.7,24.4-16.7
		c10.3-1.9,20.4-1.5,30.2,2.6c9.7,4.1,17,10.8,21.2,20.6c1.6,3.6,2.2,7.5,2,11.4c-0.2,4.4,2.1,6,6.3,4.5c4.3-1.6,8.6-2.1,12.6,0.7
		c4.6,3.2,5.9,8.7,3.1,14.6c-2.3,4.9-6,8.5-10.6,11.5c-5.2,3.4-10.5,6.4-16.6,7.6c-6.5,1.3-13,2.5-19.6,3.2
		C205.3,169,198,169.1,193.8,169.3z"/>
	<path d="M236.7,327.4c-15.5,0-30.7,0-46.2,0c0.5-4.4,1-8.8,1.5-13.2c14.4,0,28.6,0,43.1,0C235.6,318.5,236.1,322.9,236.7,327.4z"/>
	<path d="M427.5,426.4c9.8,0,19.7,0,29.5,0c1,0,2,0.1,2.8,0.5c1.7,0.7,2.4,2.2,2.2,4.1c-0.2,1.9-1.3,3-3.2,3.4
		c-0.7,0.1-1.5,0.2-2.3,0.2c-19.7,0-39.4,0-59.1,0c-4,0-6.1-3.1-4.3-6.1c1-1.6,2.5-2,4.3-2C407.6,426.4,417.5,426.4,427.5,426.4z"/>
	<path d="M385.1,430.1c0,2.5-1.8,4.4-4.3,4.4c-2.5,0-4.6-2-4.5-4.5c0-2.5,2.1-4.5,4.6-4.4C383.2,425.6,385.1,427.6,385.1,430.1z"/>
	<path d="M146.8,324.7c4.1,0,7.9,0,11.8,0c1.2,0,2.5,0,3.9,0c0,1,0,1.7,0,2.7c-5.2,0-10.4,0-15.7,0
		C146.8,326.5,146.8,325.7,146.8,324.7z"/>
	<path d="M334.1,108.3c0.6-25.9,19.6-41.6,40.6-42.4c25.3-1,44.2,17.7,44.6,41.7c0.4,23.9-18.7,43-42.4,43.1
		C353.3,150.9,334.2,132,334.1,108.3z M376.9,96.2c-4.5,0-8.9,0-13.4,0c-2.8,0-4.6,1.6-4.6,4c0,2.4,1.8,4,4.6,4c8.8,0,17.7,0,26.5,0
		c2.7,0,4.4-1.6,4.5-3.9c0.1-2.4-1.8-4.1-4.6-4.1C385.6,96.2,381.2,96.2,376.9,96.2z M376.7,120.2c4.4,0,8.8,0,13.2,0
		c2.9,0,4.7-1.5,4.7-3.9c0-2.4-1.9-4.1-4.8-4.1c-8.7,0-17.4,0-26.1,0c-3,0-4.8,1.6-4.8,4.1c0,2.5,1.6,3.9,4.6,3.9
		C367.9,120.3,372.3,120.2,376.7,120.2z"/>
	<path d="M166.3,411.6c0.1-26.1,21.4-47.4,47.4-47.1c27.3,0.3,46.8,21.7,47.1,47.1c0.3,26.2-21.3,47.7-47.5,47.4
		C187.8,458.7,166.3,438.3,166.3,411.6z M174.3,414c0.9,14,8.1,26.4,23.2,33.4c8.3,3.9,17,4.6,25.9,2.2
		c17.1-4.5,28.9-19.4,29.3-37.1c0.1-2.5-0.9-4.1-2.7-4.6c-2.9-0.9-5.2,1.1-5.3,4.6c-0.4,17.8-16.1,31.7-33.6,30.2
		c-13.5-1.1-24.9-10.8-28-24.1c-3-13,2.9-26.8,14.4-33.6c4.8-2.9,10-4.4,15.7-4.5c2.7,0,4.4-1.7,4.3-4.1c0-2.4-1.8-4-4.4-4
		C191.8,372.8,174.3,390.4,174.3,414z"/>
	<path d="M281.6,372.4c0-4.5,0-8.7,0-13.1c10.8,0,21.6,0,32.6,0c0,4.3,0,8.7,0,13.1C303.4,372.4,292.6,372.4,281.6,372.4z"/>
</g>
</svg>
