<?xml version="1.0" encoding="utf-8"?>
<!-- Generator: Adobe Illustrator 25.0.0, SVG Export Plug-In . SVG Version: 6.00 Build 0)  -->
<svg version="1.1" id="Capa_1" xmlns="http://www.w3.org/2000/svg" xmlns:xlink="http://www.w3.org/1999/xlink" x="0px" y="0px"
	 viewBox="0 0 512 512" style="enable-background:new 0 0 512 512;" xml:space="preserve">
<g id="Directorio">
	<path d="M466.1,149.7c0-15.9,0.7-32.1-1.4-47.8c-5.5-42.8-41-78.5-88-77.9c-64.8,0.8-129.6,0.1-194.4,0.3c-8,0-16.3,0.6-23.9,2.9
		c-34.6,10.3-54.2,34.6-62.4,69c-0.6,2.4-0.8,4.8-1.2,7.9c9,0,17.2-0.3,25.4,0c24.8,1,43.2,25,37.9,49.2
		c-4.2,18.9-31,31.9-50.4,32.6c-8.2,0.3-36.1,0-36.1,0c0,9.8,0,19.1,0,29c0,0,28.9-0.3,37.5,0.1c24.5,1,48.6,24.9,43.4,49
		c-4.1,19.3-28.5,32.5-48.3,32.9c-8,0.2-32.6,0-32.6,0c0,9.9,0,19.2,0,29c0,0,28.7-0.2,37.2,0c11.9,0.3,27.4,5.5,34.8,14.6
		c10.7,13,15.6,27.8,8.8,43.1c-6.9,15.4-18,23.7-35.1,24.3c-7.7,0.2-14.7,0-23.3,0c0.5,3.2,1.2,5.5,1.6,7.8
		c8.2,39.7,42.5,72.9,88,72.2c64.6-1,129.4-0.3,194-0.3c35,0,60.1-16.5,77-46.4c9.1-16.1,11.6-33.8,11.6-52.1
		C466.1,309.4,466.3,229.6,466.1,149.7z M401.1,327.6c-2,14.2-14.5,24.4-28.8,24.3c-37.2-0.2-70.7-11.5-100-34.4
		c-30.3-23.7-49.7-54.5-58.5-92c-2.8-11.8-4-23.7-4-35.8c0-16.2-5.7-29,10.5-29.7c2.5-0.1-10.4,0-10.4,0V159c0,0,42.8,0,45.8,0
		c2.1,0,2.9,1.5,3.6,3.6c4.6,13.9,9,28.1,13.6,42c0.8,2.5,0.3,3.9-2,5.4c-5.8,3.9-11.7,7.8-17.5,11.7c-3.1,2-3.5,3.2-2.1,6.6
		c9.1,22.3,23.1,40.9,41.1,56.7c12.2,10.7,25.8,19.3,40.9,25.5c3.7,1.5,4.6,1.2,6.8-2.2c3.8-5.6,7.5-11.3,11.3-16.9
		c1.8-2.7,2.8-3,5.8-2c13.7,4.6,27.4,9.2,41.2,13.7c1.7,0.5,3.1,1.4,3.1,3.3C401.6,313.3,402.1,320.6,401.1,327.6z"/>
	<path d="M93.6,379.7c-7.9,0-15.8,0.1-23.7,0c-13.8-0.2-24.1-10.5-24.2-23.9c0-13.4,10.3-23.8,24.1-23.9c15.9-0.1,31.9-0.1,47.8,0
		c13.9,0.1,24.1,10.4,24.1,23.8c0,13.5-10.2,23.7-24,23.9C109.7,379.8,101.6,379.7,93.6,379.7z"/>
	<path d="M93.9,220.9c7.9,0,15.8-0.1,23.7,0c13.9,0.2,24.1,10.4,24.2,23.8c0,13.5-10.2,23.9-24,24c-16.1,0.2-32.2,0.2-48.3,0
		c-13.5-0.2-23.7-10.6-23.8-23.8c0-13.2,10.1-23.7,23.6-24C77.5,220.8,85.7,220.9,93.9,220.9z"/>
	<path d="M93.8,157.8c-7.9,0-15.8,0.1-23.7,0c-14.1-0.2-24.4-10.5-24.4-24.2c0.1-13.2,10.6-23.5,24.4-23.7c15.8-0.1,31.6-0.1,47.3,0
		c13.9,0.1,24.3,10.3,24.3,23.7c0,13.8-10.1,23.9-24.3,24.2C109.6,157.9,101.7,157.8,93.8,157.8z"/>
</g>
</svg>
