<?xml version="1.0" encoding="utf-8"?>
<!-- Generator: Adobe Illustrator 25.0.0, SVG Export Plug-In . SVG Version: 6.00 Build 0)  -->
<svg version="1.1" id="Capa_1" xmlns="http://www.w3.org/2000/svg" xmlns:xlink="http://www.w3.org/1999/xlink" x="0px" y="0px"
	 viewBox="0 0 512 512" style="enable-background:new 0 0 512 512;" xml:space="preserve">
<g id="Home">
	<path d="M305.7,487.8c0-42.9-0.6-84.1,0.3-125.2c0.3-14.4-4-19.2-18.4-18.5c-22.2,1.1-44.5,0.7-66.8,0.1
		c-11.1-0.3-14.9,3.6-14.8,14.8c0.5,42.1,0.2,84.3,0.2,127.3c-3.5,0.5-6.6,1.4-9.6,1.4c-31.7,0.1-63.5-0.1-95.2,0.2
		c-9.2,0.1-14.2-2.1-14.2-12.5c0.2-71.5-0.1-143,0.4-214.6c0-5.3,3.7-11.7,7.6-15.6c49.5-48.2,99.6-95.9,149.1-144.2
		c8.9-8.7,14.6-8.3,23.2,0.3c49.6,48.9,99.8,97.1,149.4,146c4.1,4.1,7.2,11.3,7.3,17.1c0.5,69.6,0.3,139.2,0.3,208.9
		c0,7.4,0.2,14.6-10.5,14.5C378.7,487.8,343.2,487.8,305.7,487.8z"/>
	<path d="M255.8,57.9c-51.2,48.6-102,96.9-152.8,145.1c-19.6,18.6-39.2,37.2-58.7,55.8c-7.2,6.9-15,11.4-23.4,3.1
		c-9.1-9.1-3.9-16.9,3.8-24.2C97.6,168.7,170.4,99.6,243.1,30.4c9-8.6,16.9-8.4,25.8,0.1c72.7,69.2,145.6,138.4,218.4,207.4
		c7.7,7.3,12.8,15.3,3.6,24.1c-9.2,8.8-17,2.8-24.4-4.3C400,194.4,333.4,131.1,266.7,67.9C263.3,64.6,259.8,61.5,255.8,57.9z"/>
</g>
</svg>
