<?xml version="1.0" encoding="utf-8"?>
<!-- Generator: Adobe Illustrator 25.0.0, SVG Export Plug-In . SVG Version: 6.00 Build 0)  -->
<svg version="1.1" id="Capa_1" xmlns="http://www.w3.org/2000/svg" xmlns:xlink="http://www.w3.org/1999/xlink" x="0px" y="0px"
	 viewBox="0 0 512 512" style="enable-background:new 0 0 512 512;" xml:space="preserve">
<g id="Vacalok">
	<g>
		<path d="M362.3,194.4c-0.9,0.3-9.7,1.8-15.6-2.3c-3.4-2.3-7.5-4-9.6-2.8c-3.3,2-6.3,5-10.4,7.1c-7.4,3.8-15,6.1-23.5,5.8
			c-10.6-0.4-21.2-0.1-32-0.1c0.3,1,0.3,1.5,0.5,1.7c12.8,13.8,25.6,27.7,38.6,41.3c1,1.1,3.9,1.5,5.4,0.8
			c18.4-8.4,34.2-20.3,46.7-36.3c4.5-5.8,6.9-9.6,8.3-15.5C370.8,194.2,368.4,192.5,362.3,194.4z"/>
		<path d="M175.7,192.1c2.7,2,5.8,3.7,9.3,5.2c6.7,2.9,14.3,4.2,21.6,4.7c10.4,0.8,20.9,0.2,32.3,0.2c-1.2,1.7-1.8,2.8-2.7,3.7
			c-11.9,12.8-23.8,25.4-35.6,38.3c-2.4,2.7-4.3,3.2-7.7,1.5c-18.4-9.2-34.7-21-46.8-37.8c-2-2.8-3.2-4.6-5.3-10.6
			c-0.2-0.5,6.8,0.7,9.8-0.9c3.5-1.8,7.2,1.6,12.4-0.5c1.7-0.7,4.8,0,7.3-0.9C173.6,193.9,175.7,192.1,175.7,192.1z"/>
	</g>
	<g>
		<path d="M363.4,465.1c-1.3-3.1-2.9-6.2-4.7-9.2c-1.8-3-3.6-6-5.4-8.9c-1.7-2.9-3-5.3-3.9-7.3c-8-19.7-15.4-39.3-22.2-58.8
			c-6.8-19.6-13.8-39.2-20.9-58.8c-2.6-7.6-5.5-15-8.6-22.4c-3.1-7.3-6.1-14.8-8.9-22.2c-2.8-7.5-5.1-15-7-22.7
			c-1.8-7.7-2.8-15.5-2.8-23.5c0-0.2-0.6-1.1-1.8-2.8c-1.2-1.6-2.5-3.4-4.1-5.3c-1.5-1.9-3,1.5-4.5-0.1c-1.5-1.6-2.6,2.8-3.2,2.8
			h-17.8c-1.9,0-3.6-4.3-4.9-2.4c-1.3,1.9-2.4,1.6-3.2,4.2c-0.9,2.6-1.6,3.8-2.1,6.3c-0.5,2.5-0.9,3.6-1.1,4.7
			c0,0.4-0.1,1.3-0.3,3.4c-0.2,2.1-0.5,4.1-0.8,6.3c-0.3,2.3-0.6,4.3-0.8,6.4c-0.2,2.1-0.3,3.3-0.3,3.7c-0.2,0.4-1,1.5-2.3,3.4
			c-1.3,1.8-2.1,3-2.3,3.4c-4.8,9.7-9.5,19.7-14.1,30c-4.6,10.3-9,20.6-13.1,31c-5,13-9.6,26-13.9,39.1
			c-4.3,13.1-9.5,25.8-15.6,38.1c-1.9,3.5-4.4,8.4-7.5,14.8c-3,6.4-6,12.9-9.1,19.6c-3,6.7-5.6,13.1-7.8,19.3
			c-2.2,6.2-3.2,10.9-3.2,14.1c0,5.6,2.2,9.7,6.6,12.3c4.4,2.6,9.1,3.9,14.1,3.9c0.8,0,1.5-0.1,2.2-0.2c0,0,0.1,0,0.1,0.1
			c32.1-0.3,51.7-0.3,83.1,0.4c31.4,0.8,62.2,0,94.3,0c2.2,0,4.4-0.2,6.6-0.6c2.3-0.4,4.4-1.1,6.3-2.1c1.9-1,3.6-2.4,4.9-4.2
			c1.3-1.8,1.9-4.2,1.9-7C365.3,471.1,364.7,468.3,363.4,465.1z M274.3,317.6c6.8-3.2,3.5,11.5,8,16.4c4.3,4.7,7.3,20.1,9.7,29
			c1.3,4.8-5.2-10.8-6.9-15.8c-2.2-6.5-6.6-14.9-8.2-20.6C276.4,324.5,271.9,318.7,274.3,317.6z M297.6,390.2c2.1,7.4,3,3.6,6.2,1.2
			c4.1-3.2,10.6,21.5,11.3,26.6c0.7,5,4.8,17.6,6.4,23c2.1,7.2,5.6,17.7,5.7,22.7s-13.3-4.1-19.9-1.1c-2,0.9-9.1-1.2-15.2-0.2
			c-11.2,1.8-0.2-1.5-0.2-1.5s23.3-1.5,27.3,1c4,2.5,5.6,0.8,3.2-5.7s-2.3-14-6.1-22.8c-3.8-8.8-3.3-12.4-4.5-16.5
			c-0.7-2.4-3.5-6.9-4.1-9.3c-0.7-3.2-0.5-10.6-3.9-12.4c-1.7-0.9-2.8-0.4-2.7,4.8l4,14.2l2.6,6.4c1,3.4,2.1,6.7,3.1,10.1
			c0.4,1.3,1.5,4.6,3.2,10.1c1.7,5.4,3.6,11.1,5.7,17.2c0.1,0.3,0.2,0.5,0.3,0.8c-2.6,0-5.6-0.1-9.3-0.1c-6.3-0.1-13.5-0.2-21.5-0.4
			c-8.1-0.2-16.4-0.3-25.2-0.4c-8.7-0.1-17.1-0.2-25.2-0.4c-8.1-0.2-15.2-0.3-21.5-0.4c-6.3-0.1-10.9-0.1-14-0.1
			c-3.9,0-7.8-0.6-11.8-1.8c-1-0.3-1.9-0.4-2.9-0.7c0.7-3-2.1-5.2-1.4-7.4c1.8-5.4,7.2-20.8,9.2-26.1c2.4-6.5,12.8-41.8,14.3-45.5
			c4.9-12.8-2,14.2-3,19.4c-0.8,4.1-9.1,28.1-9.2,30.2c-0.5,12.2,14.4-35,19.2-46.2c4.8-11.2,9.3-22.5,13.6-33.7
			c4.3-11.2,8.2-22.7,11.7-34.4c0.6-1.9,1.2-4.3,1.6-7.1c0.4-2.8,1-5.6,1.6-8.4c0.6-2.8,1.6-5.5,2.9-8.1c1.3-2.6,3-4.5,5.2-5.8
			c0.4-0.2,0.8-0.3,1-0.3c2.2,0,4.3,2.3,6.3,6.8c2.1,4.5,3.9,9.7,5.5,15.4c1.6,5.7,3.1,11.3,4.4,16.7c1.3,5.4,2.3,9.1,2.9,11
			c1.7,5.6,4,11,6.8,16.2c2.8,5.2,5.1,10.4,6.8,15.6c2.2,5.9,4.3,11.9,6.4,17.8L297.6,390.2z"/>
	</g>
	<path d="M354.6,188.8c-2.8-0.6-5.2-3-7.5-4.1c-1.7-0.8-3.3-0.1-4.7-1c-5.4-3.6-9.2-8.2-11.9-11.4c-5.9-7.2-11.8-13.7-6.7-28.9
		c1-3.1,5.8-10.8,7.8-14.8c1.7-3.5,3.1-5.7,1.2-13.8c7.3,11.2,0.9,17.7,0.3,23.3c-1,9.7,6.7,8.5,9.3,8.4c4.6-0.2,8.6-2.4,10.1-7.3
		c2.1-7.1,1.5-14.4-3.4-20.2c-2.7-3.2-6-5.9-9.5-8.3c-13.8-9.7-16.6-21.2-6.3-34.9c10.6-14,16.6-28.5,11.5-46.5
		c9.6,9.5,9,20.9,6.3,32.4c-1.6,6.9-5,13.4-7,20.2c-2.5,8.6,0.8,14.4,8.7,14.9c3.3,0.2,8.2-1.3,9.9-3.8c1.6-2.3-2.5-12.3-4.1-15.3
		c-4.5-8.3-3.9-15.3-2.2-20.8c2,17.2,11.1,19.7,16.5,24.6c7.2,6.4,7.8,14.8,5.4,23.4c-2.6,9.4-6.5,18.4-9,27.8
		c-1.5,5.5-2.2,11.6-1.5,17.2c0.9,6.2,5.5,11.2,12.3,9.5c6.5-1.6,9-7,7.2-13.8c-0.5-1.9-2.3-6.5-2.9-10.7c-0.8-5.2-0.3-9.9-0.3-9.9
		s1.1,6,3.7,10.2c3.2,5.2,8,9,8.7,12.1c1,5-1.2,20.8-4.5,25c0,0-3.2,15-20.5,17.5c-2.1,0.3-7-1.6-9.5-1.8
		C359.6,187.9,357.2,189.4,354.6,188.8z"/>
	<path d="M173.1,24c0.3,12.3-8.4,31.3-14.5,42.3c-4.9,8.8-7.1,18.5-6.6,26.1c0.2,3.3,1.2,11.2,7,11.1c6.4-0.1,10.3-5.3,10-11.9
		c-0.2-4.4-0.2-7.2-1.2-11.6c-0.5-2.4-2.8-9.8-2.8-9.8s17.9,22.3,8,40.3c-4.4,8-6.5,17.5-8.1,26.5c-0.6,3.1-0.3,6.1,2.1,9.2
		c3.3,4.1,8.6,1.3,10.1,0.4c2.4-1.6,3.6-4.2,1.9-11.5c-1.8-7.7-3.9-11.3,1.3-28.3c1.6,4,0.4,12.9,1.8,18.2
		c1.6,6.1,6.3,14.8,8.2,19.1c6.7,15.5,4.7,36.2-11.2,41.6c-4.6,1.6-4.5,1.9-6.1,1.9c-3.7,0-4.2,1-9.3,3.2c-0.8,0.3-1.6,0.6-4.5,0.3
		c-2.8-0.3-4.4-1.7-7.9-1.8c-3.4-0.1-6,1.9-9.7,1.2c-3.1-0.6-6.2-1.6-9-2.9c-12.6-6-19.9-20.7-16.5-30.1c1.1-3,2.7-5.9,4-8.9
		c11-23.4,11-23.4,8.7-58.7c10,9.5,12.9,28.2,7.3,46c-1.4,4.3-3,8.7-3.5,13.1c-0.3,2.5,1.6,11.3,9.8,9.5c4.7-1,6-17.1,6.1-19.7
		c0.3-5.9-1.2-12.4-3.5-18C135,95.8,140.7,74,157,53.6C163,46.1,168.1,37.9,173.1,24z"/>
	<path d="M314.5,283.8c1.8-1.1,5.3-2,7.2-1.8c2.9,0.4,5.7,0.9,8.6,1.4c6.3,1.1,11.9-0.5,16.6-5c4.7-4.4,8.4-9.7,11.5-15.5
		c0.3-0.6,0.6-1.2,0.8-1.8c1.2-3.2,0.3-6.1-2.7-7.5c-5.8-2.6-11.9-3.6-18-0.8c-2.7,1.2-5,3.2-7.5,4.9c-2.7,1.9-5.4,3.8-8.4,5
		c0,0-6.8,2.1-11.2-2.2c-4.4-4.2-6.8-1.6-6.8-1.6L314.5,283.8z M319,249.7"/>
	<path d="M201.9,283.8c-1.8-1.1-5.5-2-7.6-1.8c-3,0.4-6,0.9-9,1.4c-6.6,1.1-12.4-0.5-17.3-5c-4.9-4.4-8.8-9.7-12-15.5
		c-0.3-0.6-0.6-1.2-0.8-1.8c-1.3-3.2-0.3-6.1,2.8-7.5c6.1-2.6,12.5-3.6,18.8-0.8c2.8,1.2,5.2,3.2,7.8,4.9c2.8,1.9,5.6,3.8,8.8,5
		c0,0,7.1,2.1,11.7-2.2c4.6-4.2,7.2-1.6,7.2-1.6L201.9,283.8z M197.2,249.7"/>
</g>
</svg>
